<?xml version="1.0" encoding="UTF-8"?>
<!DOCTYPE svg PUBLIC "-//W3C//DTD SVG 1.1//EN" "http://www.w3.org/Graphics/SVG/1.1/DTD/svg11.dtd">
<!-- Creator: CorelDRAW X8 -->
<svg xmlns="http://www.w3.org/2000/svg" xml:space="preserve" width="275px" height="272px" version="1.1" style="shape-rendering:geometricPrecision; text-rendering:geometricPrecision; image-rendering:optimizeQuality; fill-rule:evenodd; clip-rule:evenodd"
viewBox="0 0 28 27"
 xmlns:xlink="http://www.w3.org/1999/xlink">
 <defs>
  <style type="text/css">
   <![CDATA[
    .fil0 {fill:#FEFEFE}
   ]]>
  </style>
 </defs>
 <g id="Layer_x0020_1">
  <metadata id="CorelCorpID_0Corel-Layer"/>
  <path class="fil0" d="M19 26c-5,2 -10,1 -14,-2 1,-2 2,-4 6,-3 5,1 9,0 12,-4 2,-3 3,-5 3,-7 0,-1 0,-1 0,-2 0,0 0,0 1,0 0,0 0,0 0,0 0,1 0,1 0,2 1,2 1,4 0,6 -1,5 -4,8 -8,10z"/>
  <path class="fil0" d="M16 8c0,0 0,0 0,0 0,-1 0,-1 0,0 1,0 1,1 1,1 1,1 1,2 1,2 0,0 -1,0 -1,0 0,0 0,0 0,0 0,0 0,-1 0,-1 0,-1 -1,-2 -1,-2zm6 -2c0,0 0,0 0,0l0 0c0,0 0,0 0,0l0 0c0,0 0,0 0,0l0 0c0,0 0,0 0,0l0 0c0,0 0,0 0,0l0 0c0,0 0,0 0,0l0 0c0,0 0,0 0,0l0 0c0,0 0,0 0,0l0 0c0,0 0,1 0,1l0 0c0,0 0,0 0,0l0 0c0,0 0,0 0,0l0 0c0,0 0,0 0,0l0 0c0,0 0,0 1,0l0 0c0,0 0,0 0,0l0 0c0,0 0,0 0,0l0 0c0,0 0,0 0,0l0 0c0,0 0,0 0,0l0 0c0,0 0,0 0,0l0 0c0,0 0,0 0,1l0 0c0,0 0,0 0,0l0 0c0,0 0,0 0,0l0 0c0,0 0,0 0,0l0 0c0,0 0,0 0,0l0 0c0,0 0,0 0,0l0 0c0,0 0,0 0,0l0 0c0,0 0,0 0,0l0 0c0,0 0,0 0,0l0 0c0,0 0,0 0,0l0 0c0,0 0,0 0,0 0,2 0,3 0,4 -1,2 -2,3 -4,5 -2,2 -4,2 -5,2l0 0 0 0c-1,0 -2,0 -2,1 -1,0 -1,1 -1,1 -1,1 0,4 0,4 -2,-2 -2,-6 -1,-9 0,0 0,0 0,0 1,-1 1,-2 2,-2 0,0 0,0 0,0 0,0 0,0 0,0 0,0 0,0 0,0 0,0 0,0 0,0l0 0c-2,-1 -2,-1 -2,-1 0,-1 0,-1 0,-1 0,0 0,0 0,0 0,0 1,1 3,2 1,0 2,0 3,0 1,-1 1,-1 2,-1 0,0 -1,0 -1,0 0,0 0,0 -1,0 0,0 0,-1 0,-1 0,-1 -1,-2 -1,-2 0,0 0,0 1,0 0,0 0,0 0,0 0,0 0,1 0,2 0,0 0,0 1,0 0,1 0,1 0,0 0,0 0,0 1,0 0,0 0,-1 0,-1l0 0 0 0 0 0 0 0 0 0 0 -1 0 0 1 0 0 0 0 0 0 0 0 0 0 0 0 0 0 0 0 0 0 0c0,0 0,0 0,0l0 0 0 0c0,0 0,0 0,0l0 0 0 0c0,0 0,0 0,0l0 0 0 0c0,0 -1,0 -1,0l0 0c0,0 0,0 0,0l0 0 0 0c0,0 0,0 0,0 0,-1 0,-3 -1,-3 -1,0 -1,0 -1,0 0,0 -1,0 -1,0 0,0 0,0 -1,0 1,0 1,1 1,1 0,0 0,0 0,1 0,0 0,0 0,0 0,0 0,0 0,0 0,-1 0,-1 0,-1 -1,0 -1,0 -1,0 -1,0 -1,2 -1,2 0,0 0,0 -1,0 0,0 0,0 0,0 0,0 1,-2 2,-3 0,0 0,0 0,0 0,0 0,0 0,0 0,0 1,0 1,0 0,0 1,-1 1,-1 0,0 -1,0 -1,0 -1,0 -1,0 -2,0 0,0 -1,1 -2,2 0,0 0,0 0,0 0,0 0,0 0,0 1,-2 1,-2 2,-2 0,0 1,-1 1,-1 -1,0 -2,0 -3,0l0 1c0,0 -1,1 -2,2 0,1 0,2 1,3 0,0 0,0 -1,0 0,0 0,0 0,0 0,-1 0,-2 0,-3 0,-1 1,-2 2,-2 -1,0 -2,0 -2,0 -1,1 -1,1 -1,2 0,1 0,1 0,2 0,1 -1,1 -1,1 0,1 -1,1 -1,1 0,0 0,0 0,0 0,0 0,0 0,1 0,0 0,0 1,0 0,1 0,1 1,1 0,-1 0,-1 0,-1 0,0 0,0 0,0 0,0 0,0 0,0 0,0 0,1 0,1l-1 1 0 0 0 -1c0,0 0,0 1,0 -1,0 -1,0 -1,0 -1,0 -1,-1 -1,-1 -1,-1 -1,-1 -1,-2 0,0 1,-1 1,-2 0,0 0,0 0,0 0,0 0,0 0,1 0,0 0,1 0,1 0,0 0,1 0,1 0,-1 1,-1 1,-1 0,0 0,0 0,-1 0,-1 0,-1 1,-2 0,-1 0,-1 0,-1 -1,0 -2,1 -3,2 -3,4 -4,10 -1,14 -1,-1 -2,-3 -3,-4 -1,-3 -1,-5 -1,-8l0 0c0,0 0,0 0,0l0 0c0,0 0,0 0,0l0 0c2,-10 15,-15 21,-7l0 0c0,0 0,0 0,0 0,0 0,0 0,0 0,1 0,1 0,1 1,0 1,0 1,0 0,0 0,0 0,0l0 0c0,0 0,1 0,1zm-11 3c0,0 0,0 0,0 0,0 0,0 0,0 0,0 0,0 0,1 0,0 0,1 1,1 0,0 1,1 1,1 0,0 1,0 1,0 0,0 0,0 0,0 0,0 0,0 0,0 0,0 -1,0 -1,0 0,0 -1,0 -2,-1 0,0 0,-1 0,-1 0,-1 0,-1 0,-1z"/>
  <path class="fil0" d="M11 25c0,1 1,2 3,2 -4,0 -7,-1 -10,-4 0,0 0,0 0,0l0 0c0,0 0,0 0,0 -3,-4 -2,-10 1,-14 0,2 -1,3 0,4 0,2 1,2 2,2l0 0 0 0 1 -1c0,0 0,0 0,1 0,0 -1,1 0,1 0,1 0,0 1,0 0,-1 1,-2 3,-2 -1,0 -1,1 -2,2 0,0 0,0 0,0 -1,3 -1,7 1,9l0 0zm1 -11l0 0c0,0 0,0 0,0 0,0 0,0 0,0zm14 -8c0,0 0,0 0,1 1,0 1,0 1,0 0,0 -1,0 -1,0 0,0 0,0 -1,0 0,0 0,0 0,0 0,0 0,0 0,0 0,0 0,0 0,0 0,-1 -1,-1 -1,-1 0,0 0,0 0,0 0,0 -1,0 -1,0 0,0 1,-1 1,-1 0,0 0,0 0,0 0,0 0,-1 0,-1 0,0 0,0 0,1 1,0 1,0 1,0 0,0 0,0 1,0 0,0 0,0 0,0 0,0 0,0 0,1 0,0 0,0 0,0z"/>
 </g>
</svg>
