<?xml version="1.0" encoding="UTF-8"?>
<!DOCTYPE svg PUBLIC "-//W3C//DTD SVG 1.1//EN" "http://www.w3.org/Graphics/SVG/1.1/DTD/svg11.dtd">
<!-- Creator: CorelDRAW X8 -->
<svg xmlns="http://www.w3.org/2000/svg" xml:space="preserve" width="4724px" height="4724px" version="1.1" style="shape-rendering:geometricPrecision; text-rendering:geometricPrecision; image-rendering:optimizeQuality; fill-rule:evenodd; clip-rule:evenodd"
viewBox="0 0 4724 4724"
 xmlns:xlink="http://www.w3.org/1999/xlink">
 <defs>
  <style type="text/css">
   <![CDATA[
    .fil3 {fill:#FEFEFE}
    .fil2 {fill:#F08519}
    .fil0 {fill:#15B3B6}
    .fil1 {fill:#E36013}
   ]]>
  </style>
 </defs>
 <g id="Layer_x0020_1">
  <metadata id="CorelCorpID_0Corel-Layer"/>
  <g id="_1554684290608">
   <path class="fil0" d="M3043 4104c-657,272 -1381,137 -1891,-290 164,-216 232,-520 750,-390 665,162 1319,-43 1720,-609 209,-308 297,-576 311,-919 2,-56 1,-113 1,-172 0,-70 81,-92 106,-31 5,10 9,21 13,31 26,68 48,136 56,165 77,275 88,563 42,844 -114,619 -530,1126 -1108,1371z"/>
   <path class="fil1" d="M3434 1350c132,277 156,549 97,796 -65,272 -231,515 -463,704 -441,359 -796,219 -1009,382 -404,311 -176,966 251,1013 -467,-7 -916,-192 -1252,-515 -177,-171 -323,-380 -424,-622 -837,-2018 1977,-3487 2800,-1758z"/>
   <path class="fil2" d="M3434 1350c2,4 4,8 6,12l1 1c2,4 3,8 5,12l1 1c1,4 3,8 5,12l0 1c2,4 4,8 5,11l1 2c2,4 4,8 5,12l0 0c2,5 4,9 5,13l1 2c2,3 3,7 5,11l0 1c2,4 3,8 5,12l0 1c1,4 3,7 4,11l1 2c1,4 3,7 4,11l1 2c1,4 2,8 4,11l0 2c2,4 3,7 4,11l1 2c1,3 2,7 3,11l1 2c1,3 2,7 3,10l1 2c1,4 2,8 3,12l1 1c1,4 2,8 3,11l1 2c1,4 2,7 3,11l0 2c1,4 2,7 3,10l1 3c1,3 2,7 3,10l0 2c1,4 2,8 3,11l0 3c1,3 2,7 3,10l1 3c0,3 1,6 2,9l0 3c1,4 2,7 3,10l0 2c1,4 1,7 2,11l1 2c0,3 1,7 2,10l0 4c1,3 1,6 2,9l1 3c0,3 1,7 1,10l1 2c0,4 1,7 1,10l1 3c0,3 1,7 1,10 22,147 14,290 -18,426 -65,272 -231,515 -463,704 -279,227 -523,255 -719,285l0 0 0 0c-114,18 -211,37 -290,97 -74,58 -122,122 -154,186 -73,145 -10,484 -10,484 -179,-285 -261,-822 -101,-1139 13,-26 33,-48 46,-75 63,-131 163,-220 259,-279 -147,27 -423,78 -423,78l-90 -38 -118 86c0,0 -173,6 -207,-14 -34,-20 -83,-213 -94,-243 -12,-29 47,-278 47,-278l57 -195c239,-281 159,-225 -39,-19 -11,12 -22,24 -33,36 -484,535 -552,1311 -179,1870 -160,-163 -293,-360 -386,-584 -149,-358 -182,-699 -132,-1008l0 -1c5,-25 9,-50 15,-75l0 -3c2,-8 4,-16 6,-25l0 0c292,-1285 2038,-1955 2788,-861l0 0c5,7 10,15 15,23 5,6 9,13 13,20 9,13 17,27 26,41 2,4 5,8 7,12 10,17 20,35 29,53l2 4c11,20 21,41 31,62z"/>
   <path class="fil3" d="M2649 1624c-8,-9 -7,-21 1,-29 8,-7 21,-7 28,1 35,38 91,148 128,257 28,85 45,171 31,226 -2,11 -13,18 -24,15 -11,-2 -17,-13 -15,-24 11,-47 -5,-125 -31,-204 -35,-105 -87,-208 -118,-242zm-1150 1146c32,35 69,-5 158,-99 89,-93 237,-220 454,-239 6,0 12,-1 18,-1 -267,-56 -300,-166 -300,-166 -3,-11 3,-22 13,-26 11,-3 22,3 26,13 0,1 32,114 372,156 125,16 273,10 411,-4 80,-23 153,-64 210,-139 -28,19 -57,32 -85,37 -31,6 -61,5 -88,-5 -49,-19 -86,-65 -96,-142 -12,-101 -44,-258 -44,-258 -2,-11 5,-22 16,-24 11,-2 22,5 24,16 0,0 32,158 45,262 7,59 34,95 70,108 19,7 41,8 65,4 24,-5 49,-16 72,-33 58,-41 107,-116 122,-219l0 -5 1 -1 0 -1 0 -5 0 -2 1 -7 0 -2 0 -6 0 -2 0 -6 1 -1 0 -7 0 -1 0 0 0 0 0 -7 0 -2c0,-2 0,-4 0,-6l0 -1 0 -1c0,-2 0,-5 0,-7l0 0 0 -1c0,-2 -1,-4 -1,-7l0 0 0 0c0,-3 0,-5 0,-8l0 -1c0,-2 0,-5 -1,-7l0 -1 0 0c0,-3 0,-5 0,-8 -16,-178 -114,-331 -255,-409 -14,-1 -28,-2 -43,-2 -55,-1 -104,6 -148,19 -43,12 -81,31 -113,53 26,19 50,41 72,66 28,31 51,66 69,104 5,10 1,22 -9,27 -10,4 -22,0 -27,-10 -17,-34 -38,-66 -63,-95 -23,-25 -48,-48 -76,-67 -157,126 -188,301 -188,302 -2,11 -13,18 -24,16 -11,-2 -18,-13 -16,-24 0,0 35,-198 213,-334 1,-1 2,-2 3,-2 3,-3 7,-6 10,-8 39,-28 84,-51 138,-67 41,-12 86,-19 136,-20 -57,-48 -122,-84 -191,-109 -61,-1 -119,5 -173,20 -116,34 -214,116 -279,285 -4,11 -16,16 -26,12 -10,-4 -16,-16 -12,-26 71,-183 178,-273 306,-309 20,-6 40,-11 61,-14 -103,-18 -213,-17 -323,2l-11 7c-96,67 -208,199 -257,361 -36,119 -37,255 29,395 4,10 0,22 -10,27 -10,4 -22,0 -27,-10 -71,-150 -69,-296 -31,-424 43,-141 131,-260 218,-338 -88,22 -175,53 -257,93 -51,79 -85,155 -106,227 -31,101 -39,193 -43,268 -5,90 -26,143 -68,180 -41,36 -101,53 -185,70 -2,0 -3,0 -4,0 2,42 11,80 27,114 22,45 59,82 112,105 32,14 69,23 113,26 12,-35 26,-71 43,-111 4,-10 16,-15 26,-10 11,4 16,16 11,26 -34,81 -58,149 -77,218 -13,49 -45,191 -9,228zm91 -1305c-356,200 -605,558 -454,924 71,171 200,205 332,149l1 -6c7,-25 14,-49 22,-73 -44,-5 -82,-14 -115,-29 -63,-27 -106,-71 -132,-125 -26,-53 -35,-116 -32,-184 5,-87 31,-183 70,-274 5,-10 17,-15 27,-11 10,5 15,16 11,27 -38,87 -63,178 -67,261 0,3 -1,6 -1,9 76,-15 130,-30 163,-59 34,-29 50,-75 54,-152 5,-77 13,-172 45,-278 17,-57 42,-117 76,-179zm317 337c2,-11 12,-19 23,-17 11,2 19,12 17,23 -3,21 -5,41 -4,60 4,80 42,151 99,205 57,55 133,93 213,106 25,4 51,6 77,5 11,-1 20,8 21,19 0,11 -9,21 -20,21 -28,2 -57,0 -85,-5 -87,-14 -171,-56 -234,-117 -64,-61 -107,-141 -111,-232 -1,-23 0,-45 4,-68z"/>
   <path class="fil1" d="M3968 1384c11,31 34,59 55,82 20,23 40,40 43,49 9,19 -75,-14 -85,-17 -38,-12 -70,-14 -95,5 -6,6 -10,12 -15,20 -5,9 -27,62 -43,56 -13,-6 -26,-64 -30,-77 -16,-47 -39,-78 -87,-105 -16,-9 -33,-16 -50,-24 -10,-4 -57,-22 -43,-35 10,-8 50,-17 67,-26 24,-13 39,-29 40,-60 0,-24 -16,-82 -11,-96 6,-15 43,27 52,36 33,32 59,51 84,61 26,10 53,11 88,6 9,-2 54,-12 52,11 0,14 -17,43 -21,60 -4,17 -5,34 -1,54z"/>
  </g>
 </g>
</svg>
