<svg xmlns="http://www.w3.org/2000/svg" xmlns:xlink="http://www.w3.org/1999/xlink" aria-hidden="true" focusable="false" width="1em" height="1em" style="-ms-transform: rotate(360deg); -webkit-transform: rotate(360deg); transform: rotate(360deg);" preserveAspectRatio="xMidYMid meet" viewBox="0 0 24 24"><path d="M22 12a10 10 0 0 1-10 10A10 10 0 0 1 2 12A10 10 0 0 1 12 2a10 10 0 0 1 10 10m-2 0a8 8 0 0 0-8-8a8 8 0 0 0-8 8a8 8 0 0 0 8 8a8 8 0 0 0 8-8M8.6 16.6l4.6-4.6l-4.6-4.6L10 6l6 6l-6 6l-1.4-1.4z" fill="#F57045"/></svg>