<?xml version="1.0" encoding="utf-8"?>
<!-- Generator: Adobe Illustrator 21.1.0, SVG Export Plug-In . SVG Version: 6.00 Build 0)  -->
<svg version="1.1" id="Layer_1" xmlns="http://www.w3.org/2000/svg" xmlns:xlink="http://www.w3.org/1999/xlink" x="0px" y="0px"
	 viewBox="0 0 1920 2082.4" style="enable-background:new 0 0 1920 2082.4;" xml:space="preserve">
<style type="text/css">
	.st0{fill:url(#SVGID_1_);}
	.st1{fill:#7569DE;}
</style>

	<defs>

		<linearGradient id="SVGID_1_" gradientUnits="userSpaceOnUse" x1="0.7756" y1="0.5724" x2="0.2756" y2="1.0724" gradientTransform="matrix(2542.0886 0 0 4030.2974 -105.0286 -2827.9482)">
			<stop  offset="0" style="stop-color:#39B87A"/>
			<stop  offset="1" style="stop-color:#82C155"/>
		</linearGradient>

		<filter filterUnits="userSpaceOnUse" id="Filter_0" x="0px" y="0px" width="1930px" height="2684px"  >
			<feOffset in="SourceAlpha" dx="0" dy="26" />
			<feGaussianBlur result="blurOut" stdDeviation="15.745" />
			<feFlood flood-color="rgb(106, 190, 97)" result="floodOut" />
			<feComposite operator="atop" in="floodOut" in2="blurOut" />
			<feComponentTransfer><feFuncA type="linear" slope=".3"/></feComponentTransfer>
			<feMerge>
				<feMergeNode/>
				<feMergeNode in="SourceGraphic"/>
			</feMerge>
		</filter>
	</defs>
<g filter="url(#Filter_0)">
	<path class="st0" d="M418.6-1947.9c0,0,1233.3,995,1346.4,1084.5c68,53.8,217.6,175.7,279.4,329c63.7,158.2,196.5,293.8,247.6,358
		c14,17.5,121.4,288.9,134.9,412.3c11.5,104.4,12.7,638,6.3,696c-54.5,498.8-244.8,1857.2-477.2,688.9
		C1684.1,254,507.7,1646.8,3.9,723C-166.2,411-86.5,53.8-85.6,50.5C30-358.5,418.6-1947.9,418.6-1947.9z"/>
</g>
<path class="st1" d="M2063,1290.9c-58.4,116.1-239.6,121.4-309.5,11.5c-70.4-110.9,7.7-232.9,132.4-243.8
	c110.9-9.7,226.2,102.9,184.4,215.9C2068,1280.2,2065.7,1285.7,2063,1290.9z"/>
</svg>
