<?xml version="1.0" encoding="utf-8"?>
<!-- Generator: Adobe Illustrator 21.1.0, SVG Export Plug-In . SVG Version: 6.00 Build 0)  -->
<svg version="1.1" id="Layer_1" xmlns="http://www.w3.org/2000/svg" xmlns:xlink="http://www.w3.org/1999/xlink" x="0px" y="0px"
	 viewBox="0 0 969.5 858.2" style="enable-background:new 0 0 969.5 858.2;" xml:space="preserve">
<style type="text/css">
	.st0{fill:url(#SVGID_1_);}
</style>
<linearGradient id="SVGID_1_" gradientUnits="userSpaceOnUse" x1="-1773.1417" y1="763.8531" x2="-1773.6417" y2="764.7192" gradientTransform="matrix(2308.7312 0 0 -2373.2075 4094243.25 1813111.375)">
	<stop  offset="0" style="stop-color:#4C486F"/>
	<stop  offset="1" style="stop-color:#322E57"/>
</linearGradient>
<path class="st0" d="M969.4,99c1-28.8-3.7-54-12-77c-30.7-1.5-61.5-3.2-92.2-5.1C790.4,12.1,715.7,6.4,641.1,0
	c-66.6,13.2-133.4,25.4-200.7,34.6C342.2,64.7,245.5,99.7,147.7,131c-13.1,4.2-26.2,8.3-39.3,12.3c-32.2,36.9-62.9,75.1-89.6,116.3
	C12.3,269.8,6,280.2,0,290.7c5,32.1,12.2,63.9,19,95.6c8.1,37.9,17.8,75.6,30.2,112.3c25,74.2,61.8,144.5,117.2,200.6
	c51.9,52.7,118,87,188.1,108.8c70.5,21.9,144.1,32.1,217.5,38.5c69.1,6.1,138,14.1,207.5,11c25.6-1.1,51.9-3.7,77.6-8.7
	c23.3-42.5,42.3-91.2,64-145.8c57.6-145.3-114.5-181-104-320.3C827.4,243.4,964.6,243.1,969.4,99z"/>
</svg>
