<?xml version="1.0" encoding="utf-8"?>
<!-- Generator: Adobe Illustrator 21.1.0, SVG Export Plug-In . SVG Version: 6.00 Build 0)  -->
<svg version="1.1" id="Layer_1" xmlns="http://www.w3.org/2000/svg" xmlns:xlink="http://www.w3.org/1999/xlink" x="0px" y="0px"
	 viewBox="0 0 1920 1800.7" style="enable-background:new 0 0 1920 1800.7;" xml:space="preserve">
<style type="text/css">
	<!--.st0{fill:#F8563C;}-->
	<!--.st1{fill:#FFC344;}-->
</style>
	<defs>


	<linearGradient id="gradient_1" x1="25.882%" x2="0%" y1="0%" y2="96.593%">
		<stop offset="0%" stop-color="#ffc344" stop-opacity="1" />
		<stop offset="100%" stop-color="#ff9446" stop-opacity="1" />
	</linearGradient>

	<linearGradient id="gradient_2" x1="25.882%" x2="0%" y1="0%" y2="96.593%">
		<stop offset="0%" stop-color="#ff4b64" stop-opacity="1" />
		<stop offset="100%" stop-color="#ff6954" stop-opacity="1" />
	</linearGradient>


</defs>
<g>
	<g>
		<path class="st0" fill="url(#gradient_2)" d="M2992-2342.2c0,0-705.4-110.4-894.8,265.8c-124.6,247.7-13.7,280-178,426.3s-354.1,83.3-542.5,285.8
			c-200.1,215.1-583.1,332.9-795.5,650.8S563-633.5,470.3,584c-73.7,968.7,1064.1,791.4,1711.9,265.8
			c588.4-477.2,1302.3-440.7,1508-508.8c205.7-68.2,244.2-359.7,113.3-1490.5C3672.5-2280.4,2992-2342.2,2992-2342.2z"/>
	</g>
</g>

<g>
	<g>
		<path class="st1" fill="url(#gradient_1)" d="M783.8-884.4c0,0-352.1-69.4-446.8,166.4c-62.4,155.1-7,175.4-89.1,267s-176.8,52.2-271,179
			c-100,134.7-291.2,208.4-397.5,407.6s-129.3,53.4-56,812.9c57.8,598.3,532.5,493.5,858.8,173c298-292.7,645.8-281.8,748.5-324.4
			c102.7-42.6,122.1-225.4,57.4-934C1123.5-845.5,783.8-884.4,783.8-884.4z"/>
	</g>
</g>
</svg>




