<?xml version="1.0" encoding="UTF-8"?>
<!DOCTYPE svg PUBLIC "-//W3C//DTD SVG 1.1//EN" "http://www.w3.org/Graphics/SVG/1.1/DTD/svg11.dtd">
<!-- Creator: CorelDRAW X8 -->
<svg xmlns="http://www.w3.org/2000/svg" xml:space="preserve" width="4.93954in" height="1.45896in" version="1.1" style="shape-rendering:geometricPrecision; text-rendering:geometricPrecision; image-rendering:optimizeQuality; fill-rule:evenodd; clip-rule:evenodd"
viewBox="0 0 31559 9321"
 xmlns:xlink="http://www.w3.org/1999/xlink">
 <defs>
  <style type="text/css">
   <![CDATA[
    .fil1 {fill:#FEFEFE}
    .fil0 {fill:#FEFEFE;fill-rule:nonzero}
   ]]>
  </style>
 </defs>
 <g id="Layer_x0020_1">
  <metadata id="CorelCorpID_0Corel-Layer"/>
  <g id="_2915917659312">
   <path class="fil0" d="M12462 3333c0,259 186,388 558,388 372,0 558,-116 558,-348 0,-124 -63,-225 -190,-303 -128,-79 -282,-144 -463,-196 -182,-53 -363,-114 -544,-183 -182,-69 -336,-177 -463,-325 -127,-148 -191,-332 -191,-553 0,-938 604,-1408 1812,-1408 441,0 775,84 1001,250 227,166 340,397 340,693 0,108 -14,212 -42,311 -28,99 -57,169 -87,210l-45 68 -993 0c82,-86 123,-195 123,-326 0,-243 -159,-364 -476,-364 -401,0 -601,127 -601,381 0,127 64,228 191,303 127,75 281,134 463,177 181,43 363,96 547,160 183,63 338,169 465,317 127,147 191,339 191,575 0,475 -142,827 -426,1057 -285,230 -722,345 -1313,345 -591,0 -995,-105 -1212,-314 -160,-157 -241,-374 -241,-651 0,-105 12,-219 34,-342l17 -90 1009 0 -11 68c-7,37 -11,71 -11,100zm5036 856c-297,249 -717,373 -1259,373 -542,0 -918,-125 -1128,-376 -149,-172 -224,-409 -224,-712 0,-135 15,-283 45,-443l454 -2586 1010 0 -455 2563c-14,94 -22,191 -22,292 0,262 157,393 471,393 187,0 337,-49 449,-146 112,-98 191,-277 236,-539l454 -2563 1010 0 -455 2586c-93,523 -289,909 -586,1158zm4694 -3744l-1285 2036 573 2002 -1066 0 -349 -1226 -216 -808 461 -716 816 -1288 1066 0zm-2684 2793l-222 1245 -1009 0 712 -4038 1010 0 -298 1683 1 0 -194 1110zm3162 95c0,259 186,388 559,388 372,0 558,-116 558,-348 0,-124 -64,-225 -191,-303 -127,-79 -281,-144 -463,-196 -181,-53 -363,-114 -544,-183 -181,-69 -336,-177 -463,-325 -127,-148 -190,-332 -190,-553 0,-938 604,-1408 1811,-1408 442,0 775,84 1002,250 226,166 339,397 339,693 0,108 -14,212 -42,311 -28,99 -57,169 -87,210l-45 68 -993 0c83,-86 124,-195 124,-326 0,-243 -159,-364 -477,-364 -400,0 -600,127 -600,381 0,127 63,228 190,303 128,75 282,134 463,177 182,43 364,96 547,160 183,63 339,169 466,317 127,147 190,339 190,575 0,475 -142,827 -426,1057 -284,230 -722,345 -1313,345 -590,0 -994,-105 -1211,-314 -161,-157 -241,-374 -241,-651 0,-105 11,-219 33,-342l17 -90 1010 0 -11 68c-8,37 -12,71 -12,100zm5067 1150l-2816 0 713 -4038 2816 0 -157 875 -1807 0 -126 743 -155 889 -5 0 -112 656 1806 0 -157 875zm-460 -2406l572 0 -157 875 -1248 0 78 -427c88,-489 282,-447 755,-448zm1864 1256c0,259 186,388 558,388 373,0 559,-116 559,-348 0,-124 -64,-225 -191,-303 -127,-79 -282,-144 -463,-196 -181,-53 -363,-114 -544,-183 -181,-69 -336,-177 -463,-325 -127,-148 -190,-332 -190,-553 0,-938 603,-1408 1811,-1408 442,0 775,84 1002,250 226,166 339,397 339,693 0,108 -14,212 -42,311 -28,99 -57,169 -87,210l-45 68 -993 0c83,-86 124,-195 124,-326 0,-243 -159,-364 -477,-364 -400,0 -600,127 -600,381 0,127 63,228 190,303 127,75 282,134 463,177 181,43 364,96 547,160 183,63 338,169 466,317 127,147 190,339 190,575 0,475 -142,827 -426,1057 -284,230 -722,345 -1313,345 -590,0 -994,-105 -1211,-314 -161,-157 -241,-374 -241,-651 0,-105 11,-219 33,-342l17 -90 1010 0 -11 68c-8,37 -12,71 -12,100z"/>
   <path class="fil0" d="M13348 8948c-298,249 -717,373 -1260,373 -542,0 -918,-125 -1127,-376 -150,-172 -225,-409 -225,-712 0,-135 15,-282 45,-443l455 -2586 1009 0 -454 2564c-15,93 -22,190 -22,291 0,262 157,393 471,393 187,0 336,-49 448,-146 113,-97 191,-277 236,-538l454 -2564 1010 0 -454 2586c-94,524 -289,910 -586,1158zm4890 -2869l-1380 0 -555 3164 -1016 0 556 -3164 -1386 0 157 -875 3781 0 -157 875zm2043 -875c427,0 730,94 909,281 135,142 202,321 202,538 0,75 -7,153 -22,236l-51 269c-41,213 -120,379 -238,499 -118,120 -222,180 -312,180l-5 44c104,0 211,58 320,174 108,116 162,253 162,410 0,63 -7,131 -22,202l-34 174c-60,321 -203,574 -429,757 -226,183 -541,275 -945,275l-1874 0 713 -4039 1626 0zm-504 2390l-294 0 68 -392c115,-663 764,33 764,-758 0,-109 -33,-197 -98,-264 -66,-67 -162,-101 -289,-101l-421 0 -146 836 1 0 -118 679 0 0 -93 531 -42 243 533 0c7,0 15,0 22,0 172,0 309,-40 410,-121 101,-80 151,-178 151,-294 0,-240 -149,-359 -448,-359zm5566 -2390l-1285 2036 572 2003 -1065 0 -552 -2038 311 -496 0 0 953 -1505 1066 0zm-2738 3097l-168 942 -1010 0 713 -4039 1010 0 -298 1683 1 0 -248 1414z"/>
   <path class="fil0" d="M25177 6947c0,-111 24,-192 73,-244 48,-51 125,-77 231,-77 146,0 219,65 219,193 0,110 -25,189 -74,240 -50,50 -127,75 -233,75 -144,0 -216,-62 -216,-187zm1435 187c-248,0 -420,-53 -516,-161 -66,-77 -99,-183 -99,-321 0,-59 6,-122 18,-190l107 -599c78,-439 361,-659 847,-659 201,0 354,43 458,129 105,86 157,204 157,353 0,69 -10,138 -30,207 -20,69 -40,120 -59,152l-29 53 -461 0c58,-66 86,-160 86,-282 0,-64 -16,-115 -49,-152 -33,-37 -82,-56 -146,-56 -175,0 -280,97 -313,292l-91 526c-9,45 -13,89 -13,133 0,114 69,172 206,172 165,0 264,-93 297,-279l469 0 -13 75c-70,405 -345,607 -826,607zm2040 -1930c418,0 628,171 628,513 0,58 -7,119 -19,185l-91 521c-42,242 -132,421 -271,537 -139,116 -334,174 -586,174 -252,0 -427,-58 -526,-174 -68,-80 -102,-190 -102,-331 0,-62 7,-131 21,-206l91 -521c82,-465 367,-698 855,-698zm-269 1527c87,0 157,-23 209,-68 52,-45 88,-129 109,-250l89 -500c5,-35 8,-66 8,-94 0,-141 -72,-211 -214,-211 -179,3 -286,105 -320,305l-89 500c-7,43 -10,88 -10,135 0,122 73,183 218,183zm1806 -1509l278 899 600 -899 492 0 -331 1876 -471 0 187 -1058 -401 631 -341 0 -177 -631 -188 1058 -469 0 331 -1876 490 0z"/>
   <path class="fil1" d="M4726 4249l0 -763 3190 0 503 0 958 0c41,0 75,-34 75,-75l0 0c0,-42 -34,-75 -75,-75l-958 0 -503 0 -2482 0 0 -764 2231 0 754 0 706 0c42,0 76,-33 76,-75l0 0c0,-41 -34,-75 -76,-75l-706 0 -754 0 -1523 0 0 -763 2404 0c187,0 254,-78 144,-269l-614 -1064c-135,-233 -229,-326 -636,-326l-2006 0 -1617 0c-672,0 -877,71 -1117,487l-946 1638 -900 1558c-167,290 -16,566 371,566l3501 0 0 0z"/>
   <path class="fil1" d="M4726 4249l0 763 -3190 0 -503 0 -958 0c-41,0 -75,34 -75,76l0 0c0,41 34,75 75,75l958 0 503 0 2482 0 0 763 -2231 0 -754 0 -707 0c-41,0 -75,34 -75,75l0 0c0,42 34,75 75,75l707 0 754 0 1523 0 0 764 -2405 0c-186,0 -253,78 -143,269l614 1064c135,232 229,325 636,325l2006 0 1617 0c671,0 877,-70 1117,-486l946 -1638 899 -1559c168,-289 17,-566 -371,-566l-3500 0 0 0z"/>
   <path class="fil1" d="M9202 4249l128 221c134,232 167,361 -36,713l-716 1240 -287 497 -296 513 -2 0 -224 389 -98 169 -279 490c-321,594 -381,762 -1463,762l-705 0 -574 0 -1432 0c-407,0 -501,-93 -636,-326l-127 -220 1146 0 573 0 1044 0 573 0c582,0 814,-53 1022,-338l179 -284 0 0 20 -35 287 -497 42 -73 0 0 480 -831 286 -496 573 -992 1 1 521 -903z"/>
  </g>
 </g>
</svg>
