<?xml version="1.0" encoding="utf-8"?>
<!-- Generator: Adobe Illustrator 21.1.0, SVG Export Plug-In . SVG Version: 6.00 Build 0)  -->
<svg version="1.1" id="Layer_1" xmlns="http://www.w3.org/2000/svg" xmlns:xlink="http://www.w3.org/1999/xlink" x="0px" y="0px"
	 viewBox="0 0 300 100" style="enable-background:new 0 0 300 100;" xml:space="preserve">
<style type="text/css">
	.st0{fill:#FFFFFF;}
</style>
<g>
	<g>
		<path class="st0" d="M57.1,87.8l-5,4.7l4.4,3.7L54,100l-3.5-3.3l0,2.3l-4.7,0.5l-0.3-14.5l5.3-0.6l-0.1,3.3l2.9-4L57.1,87.8z"/>
		<path class="st0" d="M62.5,84.4L61.7,99L57,99.5l0.2-14.5L62.5,84.4z"/>
		<path class="st0" d="M63.8,85.1c2.2-0.4,4.3-0.8,6.4-1c1-0.2,1.9-0.1,2.7,0.1c0.8,0.2,1.4,0.6,2,1.1s1,1.1,1.2,1.9
			c0.3,0.7,0.5,1.5,0.5,2.4c0,0.9-0.1,1.7-0.3,2.6c-0.2,0.9-0.6,1.8-1.1,2.6c-0.5,0.8-1.1,1.6-1.9,2.4s-1.7,1.3-2.7,1.8
			c-0.4,0.1-0.9,0.2-1.4,0.3c-0.5,0.1-1.2,0.1-2,0.1c-0.8,0-1.9-0.1-3.1-0.3L63.8,85.1z M68.4,95.1c0.7-0.2,1.2-0.4,1.7-0.7
			c0.4-0.3,0.7-0.6,1-1c0.2-0.3,0.4-0.7,0.5-1c0.1-0.3,0.1-0.6,0.1-0.8c0-0.2,0-0.3,0-0.3c0,0,0-0.1-0.1-0.4c0-0.2-0.1-0.5-0.2-0.7
			c-0.1-0.3-0.3-0.5-0.5-0.7c-0.2-0.2-0.5-0.3-0.9-0.2c-0.4,0-0.8,0.3-1.4,0.7L68.4,95.1z"/>
		<path class="st0" d="M83.6,90.2c0.4,0.2,0.8,0.4,1.1,0.6c0.4,0.2,0.7,0.5,1.1,0.8c0.3,0.3,0.6,0.7,0.8,1.1c0.2,0.4,0.3,1,0.4,1.6
			c0,0.9-0.1,1.6-0.4,2.3c-0.3,0.7-0.8,1.2-1.3,1.7c-0.6,0.5-1.3,0.8-2,1c-0.8,0.2-1.6,0.4-2.6,0.4c-0.4,0-0.9,0-1.3-0.1
			c-0.4-0.1-0.9-0.1-1.3-0.2c-0.4-0.1-0.9-0.2-1.3-0.4c-0.4-0.2-0.8-0.3-1.2-0.5l1.4-3.9c0.2,0.1,0.4,0.2,0.6,0.3
			c0.3,0.1,0.5,0.2,0.8,0.3c0.3,0.1,0.6,0.2,0.9,0.3c0.3,0.1,0.6,0.1,0.9,0.1c0.4,0,0.8-0.1,1.1-0.2c0.3-0.1,0.5-0.4,0.4-0.7
			c0-0.2-0.1-0.4-0.3-0.5c-0.2-0.1-0.4-0.2-0.7-0.3c-0.2,0-0.4-0.1-0.7-0.2c-0.3-0.1-0.6-0.2-0.9-0.3c-0.3-0.1-0.7-0.3-1-0.5
			s-0.7-0.5-0.9-0.7c-0.3-0.3-0.5-0.6-0.7-1c-0.2-0.4-0.3-0.8-0.3-1.3c0-0.8,0.1-1.6,0.4-2.2c0.3-0.7,0.7-1.2,1.3-1.7
			c0.5-0.5,1.2-0.8,1.9-1.1c0.7-0.2,1.5-0.4,2.3-0.4c0.8,0,1.5,0,2.3,0.1c0.7,0.1,1.4,0.3,2.1,0.6l-1.1,4.2
			c-0.5-0.2-0.9-0.4-1.3-0.5c-0.4-0.1-0.9-0.2-1.4-0.3c-0.2,0-0.4,0-0.6,0c-0.3,0-0.5,0-0.7,0.1c-0.2,0.1-0.5,0.1-0.6,0.3
			c-0.2,0.1-0.3,0.3-0.3,0.5c0,0.1,0,0.2,0.1,0.2c0.1,0.1,0.2,0.1,0.3,0.1c0.1,0,0.3,0.1,0.4,0.1c0.1,0,0.2,0,0.3,0
			c0.3,0.1,0.7,0.2,1.1,0.3C82.9,89.9,83.3,90.1,83.6,90.2z"/>
		<path class="st0" d="M89.9,86.9c-0.4,1.5-1.2,3.4-1.7,4.3l-1,0.1c0.4-1.1,0.9-2.9,1.1-4.2L89.9,86.9z"/>
		<path class="st0" d="M96.5,85.1l5.4-0.8l-0.5,10.1l4.4-0.9l0.2,5.1l-9.5,1L96.5,85.1z"/>
		<path class="st0" d="M112.9,83.5l9.1,13.8l-5.7,2.1l-1.5-2.5l-3.8,0.1l-0.7,2.7l-5.4-1.8L112.9,83.5z M112,94.2l2.1-0.4l-0.9-2.4
			L112,94.2z"/>
		<path class="st0" d="M122.1,84.5l6.9,5.7l0.2-6l5.4,0.4l-0.8,13.7l-6.9-3.4l0.3,4.3l-5.2,0.3L122.1,84.5z"/>
		<path class="st0" d="M145.4,90.3c-0.2-0.4-0.4-0.7-0.8-0.9c-0.4-0.2-0.8-0.3-1.2-0.3c-0.4,0-0.9,0.1-1.4,0.3
			c-0.5,0.2-0.9,0.5-1.3,0.8c-0.4,0.3-0.7,0.8-1,1.3c-0.3,0.5-0.4,1.1-0.4,1.7c0,0.6,0.1,1.1,0.3,1.4c0.2,0.4,0.5,0.6,0.8,0.8
			s0.6,0.2,1,0.2c0.4,0,0.7-0.1,1.1-0.3c0.4-0.2,0.7-0.4,1-0.6c0.3-0.3,0.5-0.6,0.7-0.9l-2.6,0.5l0.3-2.9l7.9-1
			c0.1,0.8,0.1,1.5-0.1,2.2c-0.2,0.7-0.4,1.4-0.7,2c-0.3,0.6-0.6,1.2-1,1.6c-0.3,0.5-0.6,0.9-0.8,1.1c-0.2,0.3-0.3,0.4-0.4,0.4
			c-0.4,0.4-1,0.8-1.6,1.1c-0.6,0.3-1.3,0.6-2,0.7c-0.7,0.2-1.4,0.2-2.2,0.2c-0.8,0-1.5-0.2-2.2-0.4c-0.7-0.2-1.3-0.6-1.9-1.1
			c-0.6-0.5-1.1-1.2-1.4-2c-0.4-0.9-0.6-1.8-0.7-2.7c-0.1-0.9,0-1.8,0.2-2.6s0.5-1.6,1-2.4c0.5-0.7,1-1.4,1.6-2
			c0.6-0.6,1.3-1.1,2.1-1.5c0.8-0.4,1.6-0.7,2.5-0.9c0,0,0.2,0,0.4,0c0.2,0,0.6,0,1,0c0.4,0,0.9,0.1,1.5,0.3
			c0.6,0.2,1.2,0.4,1.8,0.8c0.6,0.4,1.3,0.8,1.9,1.5L145.4,90.3z"/>
		<path class="st0" d="M160.7,85c0.1,1.8,0.1,3.3,0.2,4.4c0,1.1,0.1,2,0.1,2.6c0,0.6,0,1,0,1.2v0.3c0,0.7,0,1.4-0.2,2.1
			c-0.1,0.7-0.3,1.3-0.7,1.8c-0.3,0.5-0.8,1-1.3,1.4c-0.5,0.4-1.2,0.7-2,0.8c-1.2,0.2-2.3,0.3-3.2,0.1c-0.9-0.2-1.6-0.6-2.2-1.1
			c-0.6-0.5-1-1.2-1.3-2c-0.3-0.8-0.4-1.7-0.4-2.7c0,0,0-0.1,0-0.2c0-0.1,0-0.4,0-0.8c0-0.4,0-0.9,0-1.6c0-0.7,0-1.6,0.1-2.8
			c0-1.2,0.1-2.6,0.1-4.3l5.2,0.9l-0.5,8.5c0,0.3,0,0.6,0,0.8c0.1,0.2,0.1,0.4,0.2,0.5c0.1,0.1,0.1,0.2,0.1,0.2
			c0.1,0.1,0.3,0.2,0.4,0.2c0.2,0,0.3-0.1,0.5-0.4c0,0,0-0.1,0.1-0.2c0.1-0.1,0.1-0.4,0.2-0.7c0.1-0.3,0.1-0.8,0.1-1.3l-0.4-6.9
			L160.7,85z"/>
		<path class="st0" d="M168.2,83.5l9.1,13.8l-5.7,2.1l-1.5-2.5l-3.8,0.1l-0.7,2.7l-5.4-1.8L168.2,83.5z M167.3,94.2l2.1-0.4
			l-0.9-2.4L167.3,94.2z"/>
		<path class="st0" d="M187,90.3c-0.2-0.4-0.4-0.7-0.8-0.9c-0.4-0.2-0.8-0.3-1.2-0.3c-0.4,0-0.9,0.1-1.4,0.3
			c-0.5,0.2-0.9,0.5-1.3,0.8c-0.4,0.3-0.7,0.8-1,1.3c-0.3,0.5-0.4,1.1-0.4,1.7c0,0.6,0.1,1.1,0.3,1.4c0.2,0.4,0.5,0.6,0.8,0.8
			c0.3,0.2,0.6,0.2,1,0.2c0.4,0,0.7-0.1,1.1-0.3c0.4-0.2,0.7-0.4,1-0.6c0.3-0.3,0.5-0.6,0.7-0.9l-2.6,0.5l0.3-2.9l7.9-1
			c0.1,0.8,0.1,1.5-0.1,2.2c-0.2,0.7-0.4,1.4-0.7,2s-0.6,1.2-1,1.6c-0.3,0.5-0.6,0.9-0.8,1.1c-0.2,0.3-0.3,0.4-0.4,0.4
			c-0.4,0.4-1,0.8-1.6,1.1c-0.6,0.3-1.3,0.6-2,0.7c-0.7,0.2-1.4,0.2-2.2,0.2s-1.5-0.2-2.2-0.4c-0.7-0.2-1.3-0.6-1.9-1.1
			c-0.6-0.5-1.1-1.2-1.4-2c-0.4-0.9-0.6-1.8-0.7-2.7c-0.1-0.9,0-1.8,0.2-2.6s0.5-1.6,1-2.4c0.5-0.7,1-1.4,1.6-2
			c0.6-0.6,1.3-1.1,2.1-1.5c0.8-0.4,1.6-0.7,2.5-0.9c0,0,0.2,0,0.4,0c0.2,0,0.6,0,1,0s0.9,0.1,1.5,0.3c0.6,0.2,1.2,0.4,1.8,0.8
			c0.6,0.4,1.3,0.8,1.9,1.5L187,90.3z"/>
		<path class="st0" d="M191.8,85.3l9.9-0.7l-0.6,4.6l-4.5,0.2l0,0.9l3.3-0.2l-0.4,3.2l-3,0.2l0,1l5.2-0.5l-0.1,5l-9.6,0.5
			L191.8,85.3z"/>
		<path class="st0" d="M220.1,87.1L217,91c-0.6-0.7-1.2-1.1-1.7-1.3c-0.5-0.2-0.9-0.2-1.3-0.1c-0.4,0.1-0.7,0.3-0.9,0.6
			c-0.2,0.3-0.4,0.6-0.6,1c-0.1,0.3-0.3,0.8-0.4,1.3c0,0,0,0.2,0.1,0.5c0.1,0.3,0.2,0.6,0.4,1c0.2,0.4,0.5,0.6,0.8,0.8
			c0.4,0.2,0.9,0.1,1.5-0.1c0.6-0.2,1.4-0.8,2.3-1.6l3.5,3.7c-0.2,0.3-0.5,0.7-0.9,1.1c-0.4,0.4-1,0.7-1.6,1c-0.6,0.3-1.3,0.5-2,0.7
			c-0.7,0.2-1.5,0.3-2.2,0.3c-0.8,0-1.5-0.1-2.3-0.2c-0.7-0.2-1.4-0.5-2-1c-0.9-0.7-1.6-1.5-2-2.3c-0.4-0.8-0.7-1.7-0.8-2.6
			c-0.1-0.9,0-1.8,0.2-2.7c0.2-0.9,0.5-1.7,0.9-2.5c0.4-0.8,0.9-1.5,1.4-2.1c0.5-0.6,1.1-1.1,1.7-1.5c0.5-0.3,0.9-0.5,1.4-0.6
			c0.4-0.1,0.9-0.2,1.5-0.3c0.6-0.1,1.2,0,1.9,0.2c0.7,0.2,1.4,0.5,2.1,0.9C218.7,85.6,219.4,86.2,220.1,87.1z"/>
		<path class="st0" d="M221.4,85.1l5.4-0.8l-0.5,10.1l4.4-0.9l0.2,5.1l-9.5,1L221.4,85.1z"/>
		<path class="st0" d="M241.9,85c0.1,1.8,0.1,3.3,0.2,4.4c0,1.1,0.1,2,0.1,2.6c0,0.6,0,1,0,1.2v0.3c0,0.7,0,1.4-0.2,2.1
			c-0.1,0.7-0.3,1.3-0.7,1.8c-0.3,0.5-0.8,1-1.3,1.4c-0.5,0.4-1.2,0.7-2,0.8c-1.2,0.2-2.3,0.3-3.2,0.1c-0.9-0.2-1.6-0.6-2.2-1.1
			c-0.6-0.5-1-1.2-1.3-2c-0.3-0.8-0.4-1.7-0.4-2.7c0,0,0-0.1,0-0.2c0-0.1,0-0.4,0-0.8c0-0.4,0-0.9,0-1.6c0-0.7,0-1.6,0.1-2.8
			c0-1.2,0.1-2.6,0.1-4.3l5.2,0.9l-0.5,8.5c0,0.3,0,0.6,0,0.8c0.1,0.2,0.1,0.4,0.2,0.5c0.1,0.1,0.1,0.2,0.1,0.2
			c0.1,0.1,0.3,0.2,0.4,0.2c0.2,0,0.3-0.1,0.5-0.4c0,0,0-0.1,0.1-0.2c0.1-0.1,0.1-0.4,0.2-0.7c0.1-0.3,0.1-0.8,0.1-1.3l-0.4-6.9
			L241.9,85z"/>
		<path class="st0" d="M242.9,85.2c1.7-0.3,3.1-0.5,4.2-0.6c1.1-0.1,2-0.2,2.6-0.2c0.6,0,1.2,0.1,1.7,0.2c0.5,0.2,0.9,0.5,1.2,0.7
			c0.3,0.2,0.6,0.5,0.9,0.8c0.3,0.3,0.5,0.7,0.5,1.2c0.1,0.5,0,1-0.3,1.5c-0.2,0.6-0.7,1.2-1.5,1.9c1,0.5,1.7,1.1,2.2,1.7
			c0.4,0.6,0.7,1.2,0.7,1.8c0,0.6,0,1.2-0.3,1.7c-0.2,0.5-0.5,1-0.8,1.4c-0.3,0.4-0.7,0.9-1.2,1.4c0,0-0.1,0.1-0.2,0.2
			c-0.2,0.1-0.4,0.2-0.9,0.3c-0.4,0.1-1,0.2-1.8,0.3c-0.7,0.1-1.7,0.1-2.8,0.1c-1.2,0-2.6-0.1-4.2-0.3L242.9,85.2z M250.3,94.1
			c0-0.1-0.1-0.3-0.2-0.4c-0.1-0.2-0.2-0.3-0.4-0.4c-0.2-0.1-0.5-0.1-0.9-0.1c-0.4,0-0.8,0.2-1.4,0.5l0.2,1.9c0.7,0.1,1.2,0,1.5-0.1
			c0.4-0.1,0.6-0.3,0.8-0.4c0.2-0.2,0.3-0.4,0.3-0.7C250.4,94.3,250.3,94.2,250.3,94.1z M249.3,88.6c-0.1-0.1-0.3-0.2-0.5-0.3
			c-0.2,0-0.6,0-1.1,0.2l-0.1,1.9c0.4,0.1,0.7,0,0.9-0.1c0.2-0.1,0.4-0.3,0.5-0.5c0.1-0.2,0.2-0.4,0.3-0.7
			C249.4,88.9,249.4,88.7,249.3,88.6z"/>
	</g>
	<path id="XMLID_25_" class="st0" d="M76.2,34.8c-0.1,0-0.1-0.3,0-0.8c0-1.8,0-3.6-0.2-5.5c-0.2-1.9-0.6-3.7-1.3-5.3
		c-0.7-1.7-1.6-3.1-2.9-4.3c-1.3-1.2-2.9-2-5-2.4c-0.6-0.1-1.3-0.2-1.9-0.3c-0.6,0-1.2-0.1-1.9-0.1c-2.3,0-4.6,0.3-6.9,1
		c-2.3,0.7-4.2,1.6-5.8,2.9c-0.1,0.1-0.2,0.1-0.3,0.2c-0.1,0-0.2,0.1-0.3,0.2c-0.9,0.8-1.6,1.5-2,2.1c-0.5,0.6-0.7,1-0.7,1
		c-0.1,0.2-0.2,0.3-0.5,0.3c0,0-0.1,0-0.1,0c0,0-0.1,0-0.2,0c-0.3-0.1-0.4-0.4-0.2-0.7c0,0,0.1-0.5,0.3-1.3c0.2-0.8,0-1.8-0.5-2.9
		c-0.9-1-2.2-1.7-3.9-2.2c-1.7-0.5-3.7-0.8-6-0.8c-2.2,0-4.2,0.2-6.1,0.7c-1.8,0.5-3.3,1-4.4,1.7c-0.3,0.2-0.6,0.5-0.9,0.7
		c-0.3,0.2-0.6,0.5-0.8,0.7c-0.2,0.3-0.4,0.5-0.7,0.7c-1,1-1.7,1.8-2,2.3c-0.2,0.4-0.4,0.7-0.6,1c-0.1,0.2-0.3,0.3-0.5,0.3
		c0,0-0.1,0-0.1-0.1c-0.4-0.1-0.5-0.3-0.4-0.6c0,0,0-0.5,0.1-1.3c0.1-0.8,0-1.7-0.3-2.5l-0.2-0.4c-0.2-0.2-0.5-0.4-1-0.7
		c-0.5-0.3-1.1-0.6-1.9-0.9c-0.8-0.3-1.7-0.6-2.8-0.8c-1.1-0.2-2.3-0.3-3.7-0.3c-0.8,0-1.7,0-2.8,0.1c-1,0.1-2,0.3-2.9,0.5
		c-0.9,0.2-1.7,0.6-2.3,1c-0.6,0.4-1,1-1,1.7L0,65.3c0,1.3,0.6,2.5,1.8,3.7c0.9,0.9,2,1.6,3.3,2.1c1.3,0.5,2.7,0.8,4.1,0.8h0.3
		c3-0.1,5.3-0.7,6.9-1.8c1.6-1.1,2.4-2.7,2.4-4.7l0.6-26c0-0.3,0-0.5,0.1-0.5c0.2-0.9,0.7-1.6,1.4-2.2c0.7-0.6,1.5-0.8,2.4-0.8
		c0.9,0,1.6,0.2,2.2,0.7c0.6,0.5,1,1.1,1.2,1.9c0,0.1,0.1,0.3,0.1,0.5l0.9,24.6c0,2.6,1,4.7,2.9,6.1c1.9,1.4,4.5,2.1,7.9,2.1
		c1.9,0,3.5-0.3,4.7-0.8c1.2-0.5,2.2-1.2,3-2.1c0.8-0.9,1.3-1.8,1.7-3c0.4-1.1,0.7-2.3,0.9-3.4l0.1-0.2l-0.1-22.9
		c0-0.2,0-0.4,0.1-0.5c0.2-1,0.6-1.8,1.3-2.4c0.7-0.6,1.5-0.9,2.4-0.9c0.9,0,1.7,0.3,2.4,0.9c0.7,0.6,1.1,1.3,1.3,2.2h0.1
		c0,0.4,0.1,1,0.2,1.9c0.1,0.8,0.1,2.1,0.2,3.9c0,1.7,0.1,4,0.1,6.9c0,2.9,0,6.5,0,10.9v0.6c0,1.9,0.3,3.4,1,4.5
		c0.7,1.2,1.5,2,2.5,2.7c1,0.6,2.2,1.1,3.5,1.3c1.3,0.2,2.5,0.4,3.8,0.4c1.8,0,3.3-0.2,4.4-0.6c1.1-0.4,2-0.9,2.6-1.7
		c0.6-0.7,1.1-1.6,1.3-2.6c0.2-1,0.3-2.2,0.3-3.6c0-4.2,0-7.8,0-10.8c0-3,0-5.6,0-7.6c0-2.1,0-3.8,0-5.1s0-2.3,0-3
		c0-0.7,0-1.2,0-1.5C76.2,35.1,76.2,34.9,76.2,34.8z"/>
	<path id="XMLID_20_" class="st0" d="M93.4,5.2c1,0.3,1.8,0.8,2.6,1.3c0.8,0.6,1.6,1.2,2.2,2c0.7,0.8,1.2,1.6,1.6,2.6
		c0.9,2.4,0.9,4.7,0,6.7c-1,1.8-2.4,3.1-4.3,3.7c-0.6,0.2-1.4,0.3-2.2,0.4c-0.8,0.1-1.8,0.1-2.8,0.1c-1.6,0-3.1-0.1-4.6-0.3
		c-1.5-0.2-2.9-0.5-4.1-1c-1.2-0.4-2.2-0.9-3.1-1.5c-0.8-0.6-1.4-1.2-1.6-1.9c-0.4-0.9-0.3-2,0.4-3.3c0.5-1,1.1-1.9,1.9-2.9
		c0.8-1,1.7-1.9,2.7-2.7c1-0.8,2-1.5,3.1-2.1c1-0.6,2-1.1,2.9-1.3c0.4-0.1,0.7-0.2,1.2-0.3c0.4,0,0.8-0.1,1.2-0.1
		C91.5,4.7,92.5,4.8,93.4,5.2z M90.3,72.6c3.1,0,5.6-0.2,7.3-0.7c1.7-0.5,2.7-1,3-1.4l-0.1-36c0-0.5-0.3-1.1-0.8-1.9
		c-0.5-0.8-1.3-1.5-2.3-2.2c-1-0.7-2.2-1.3-3.5-1.9c-1.3-0.5-2.8-0.8-4.4-0.8h-0.1c-2,0-3.7,0.2-5,0.7c-1.3,0.5-2.4,1.1-3.2,1.8
		c-0.8,0.7-1.4,1.5-1.7,2.2c-0.3,0.8-0.5,1.4-0.5,2l-0.1,36.3c0,0.1,0.2,0.3,0.5,0.5c0.4,0.2,1,0.4,1.8,0.6c0.9,0.2,2,0.4,3.5,0.5
		c1.5,0.2,3.3,0.2,5.5,0.2H90.3z"/>
	<path id="XMLID_19_" class="st0" d="M152.1,48.9c0.1-1,0.3-2.2,0.4-3.5c0.1-1.3,0.2-2.7,0.3-4.1c0.1-0.8,0.1-1.5,0.2-2.1
		c0-0.6,0.1-1.3,0.1-2v-2.4c0-0.5-0.1-0.9-0.1-1.4c0-0.5-0.1-1-0.2-1.7c0-0.1-0.1-0.2-0.1-0.2c0-0.1,0-0.1-0.1-0.2
		c-0.1-0.4-0.2-0.7-0.2-1.1c-0.1-0.4-0.3-0.9-0.6-1.7l-0.7-1.4c-0.3-0.6-0.6-1.1-1-1.6c-0.3-0.5-0.7-1-1.2-1.6
		c-1.5-1.8-3.2-3.2-5.2-4.4c-2.1-1.2-4-2-5.9-2.4c-1.8-0.5-3.5-0.8-4.9-1c-1.6-0.1-3.2-0.2-4.8-0.1c-1.6,0-3.3,0.2-5,0.4
		c-0.6,0.1-1.3,0.2-1.9,0.3c-0.6,0.1-1.2,0.3-1.8,0.4c0,0-0.1,0.1-0.2,0.1c-0.6,0.2-1.1,0.5-1.5,0.8c-0.4,0.3-0.6,0.7-0.8,1
		c-0.2,0.3-0.3,0.7-0.4,1c0,0.3-0.1,0.5-0.1,0.7v0.2c0,0.3-0.2,0.5-0.5,0.5c-0.4,0-0.5-0.2-0.5-0.5v-0.1c0-0.1,0-0.3-0.1-0.5
		c-0.1-0.2-0.2-0.5-0.3-0.7c-0.2-0.2-0.4-0.5-0.7-0.7c-0.3-0.2-0.7-0.4-1.2-0.5h-1.8c-0.8,0-1.6,0-2.4,0.1c-0.8,0.1-1.6,0.2-2.3,0.4
		c-0.7,0.2-1.4,0.5-2.1,0.7c-0.6,0.3-1.1,0.6-1.5,1c-0.3,0.3-0.5,0.7-0.5,1.2l1.4,44c0,0.7,0.2,1.4,0.7,2.1c0.5,0.7,1.1,1.3,2,1.9
		c0.8,0.6,1.8,1,3,1.4c1.1,0.3,2.4,0.5,3.7,0.5h0.4c3.6-0.1,6.1-1,7.7-2.6c0.6-0.7,1-1.4,1.2-2.1c0.2-0.7,0.2-1.3,0.2-1.7l-0.7-26.8
		c0-0.7,0.1-1.3,0.5-1.8c0.4-0.5,0.9-0.9,1.6-1.1c1.1-0.3,2.3-0.5,3.5-0.5c1.2-0.1,2.3-0.1,3.3,0c0.1,0,0.2,0,0.3,0
		c0.1,0,0.2,0,0.3,0c0.7,0.1,1.3,0.5,1.7,1.1c0.5,0.6,0.7,1.2,0.6,1.9c0,0.3-0.1,0.6-0.1,0.8c0,0.3,0,0.6-0.1,1
		c-0.1,1-0.2,2-0.3,3.1c-0.1,1.1-0.2,2.4-0.4,3.8c-0.2,2.2-0.5,4.4-0.7,6.7c-0.3,2.2-0.6,4.5-0.9,6.8l-0.1,1c-0.1,1.2,0,2.4,0.3,3.5
		c0.3,1.2,0.9,2.3,1.7,3.3c0.8,1,1.8,1.9,2.8,2.5c1.1,0.6,2.2,0.9,3.4,1h0.8c3.1,0,5.5-0.7,7.1-2.2c0.7-0.6,1.3-1.5,1.7-2.5
		c0.5-1,0.8-2.1,0.9-3.3l0.3-1.8c0.3-2.2,0.6-4.3,0.8-6.5C151.6,53.3,151.8,51.1,152.1,48.9z"/>
	<path id="XMLID_15_" class="st0" d="M170.5,5.2c1,0.3,1.8,0.8,2.6,1.3c0.8,0.6,1.6,1.2,2.2,2c0.7,0.8,1.2,1.6,1.6,2.6
		c0.9,2.4,0.9,4.7,0,6.7c-1,1.8-2.4,3.1-4.3,3.7c-0.6,0.2-1.4,0.3-2.2,0.4c-0.8,0.1-1.8,0.1-2.8,0.1c-1.6,0-3.1-0.1-4.6-0.3
		c-1.5-0.2-2.9-0.5-4.1-1c-1.2-0.4-2.2-0.9-3.1-1.5c-0.8-0.6-1.4-1.2-1.6-1.9c-0.4-0.9-0.3-2,0.4-3.3c0.5-1,1.1-1.9,1.9-2.9
		c0.8-1,1.7-1.9,2.7-2.7c1-0.8,2-1.5,3.1-2.1c1-0.6,2-1.1,2.9-1.3c0.4-0.1,0.7-0.2,1.2-0.3c0.4,0,0.8-0.1,1.2-0.1
		C168.6,4.7,169.6,4.8,170.5,5.2z M167.4,72.6c3.1,0,5.6-0.2,7.3-0.7c1.7-0.5,2.7-1,3-1.4l-0.1-36c0-0.5-0.3-1.1-0.8-1.9
		c-0.5-0.8-1.3-1.5-2.3-2.2c-1-0.7-2.2-1.3-3.5-1.9c-1.3-0.5-2.8-0.8-4.5-0.8h-0.1c-2,0-3.7,0.2-5,0.7c-1.3,0.5-2.4,1.1-3.2,1.8
		c-0.8,0.7-1.4,1.5-1.7,2.2c-0.3,0.8-0.5,1.4-0.5,2l-0.1,36.3c0,0.1,0.2,0.3,0.5,0.5c0.4,0.2,1,0.4,1.8,0.6c0.9,0.2,2,0.4,3.5,0.5
		c1.5,0.2,3.3,0.2,5.5,0.2H167.4z"/>
	<path id="XMLID_5_" class="st0" d="M234.5,6c-0.1-0.5-0.3-1.1-0.5-1.7c-0.2-0.6-0.6-1.2-1.1-1.7c-0.9-0.9-2-1.6-3.3-2
		c-1.4-0.4-3-0.6-4.9-0.6h-0.1c-0.7,0-1.5,0.1-2.5,0.2c-1,0.2-1.9,0.5-2.9,1.1c-0.9,0.6-1.7,1.4-2.4,2.5c-0.7,1.1-1,2.6-1,4.6V13
		c0,0.2,0,0.4-0.1,0.6c0,0.2-0.1,0.4-0.2,0.6c1.8,0.5,3.3,1.1,4.6,1.8c1.3,0.7,2.2,1.2,2.8,1.6c-1.3-0.5-2.8-0.8-4.3-1.2
		c-1.6-0.3-3.2-0.5-4.9-0.7c-0.2,0.1-0.4,0.1-0.7,0.1h-0.2h-0.4c-8.1,0-15.2,2.1-21.3,6.3c-1.8,1.3-3.4,2.8-4.9,4.5
		c-1.5,1.7-2.7,3.5-3.6,5.4c-1,1.9-1.6,4-2,6.2c-0.4,2.2-0.6,4.4-0.5,6.7c0.2,2.2,0.5,4.2,1,6c0.5,1.8,1.2,3.8,2.2,5.8
		c1,1.9,2.1,3.8,3.6,5.4c1.4,1.7,3,3.1,4.7,4.3c1.7,1.2,3.4,2.2,5.3,3c1.9,0.8,3.9,1.4,6,1.9c3.8,0.7,7.6,0.9,11.5,0.4
		c1.6-0.2,3.1-0.7,4.5-1.3c1-0.5,2-0.4,2.8,0.2c1.1,0.7,2.3,1.1,3.5,1.1c2.2,0,3.9-0.3,5.2-1c1.2-0.6,2.1-1.6,2.8-2.8
		c0.6-1.2,1-2.7,1.2-4.4c0.2-1.7,0.2-3.7,0.2-5.8l0.1-49.6c0,0,0-0.1,0.1-0.1c0,0,0.1-0.1,0.1-0.1c0,0,0-0.3,0-0.6
		C234.7,6.9,234.6,6.5,234.5,6z M215.8,50.5c0,0.8-0.3,1.5-0.8,2c-0.5,0.5-1.2,0.8-2,0.8h-0.8c-0.4,0-0.7,0.1-1.1,0.1
		c-0.3,0-0.7,0.1-1.1,0.1c-1.5,0-2.9-0.2-4.3-0.6c-1.4-0.4-2.5-1-3.3-1.7c-1-0.7-1.8-1.7-2.4-2.9c-0.3-0.5-0.5-1.2-0.8-2.2
		c-0.3-1-0.4-1.8-0.4-2.6c0-0.7,0-1.3,0.1-1.8c0.1-0.5,0.3-1.1,0.5-1.6c0.3-0.6,0.6-1.2,1.1-1.6c0.4-0.4,0.9-0.8,1.5-1.3
		c1.2-0.9,2.7-1.6,4.6-2.1c1.9-0.5,3.8-0.7,5.9-0.7h0.1l0.1,0.1h0.2c0.9,0,1.5,0.2,2,0.7c0.6,0.6,0.9,1.2,0.9,2V50.5z"/>
	<path id="XMLID_2_" class="st0" d="M252.6,5c1,0.3,1.8,0.8,2.6,1.3c0.8,0.6,1.6,1.2,2.2,2c0.7,0.8,1.2,1.6,1.6,2.6
		c0.9,2.4,0.9,4.7,0,6.7c-1,1.8-2.4,3.1-4.3,3.7c-0.6,0.2-1.4,0.3-2.2,0.4c-0.8,0.1-1.8,0.1-2.8,0.1c-1.6,0-3.1-0.1-4.6-0.3
		c-1.5-0.2-2.9-0.5-4.1-1c-1.2-0.4-2.2-0.9-3.1-1.5c-0.8-0.6-1.4-1.2-1.6-1.9c-0.4-0.9-0.3-2,0.4-3.3c0.5-1,1.1-1.9,1.9-2.9
		c0.8-1,1.7-1.9,2.7-2.7c1-0.8,2-1.5,3.1-2.1c1-0.6,2-1.1,2.9-1.3c0.4-0.1,0.7-0.2,1.2-0.3c0.4,0,0.8-0.1,1.2-0.1
		C250.7,4.5,251.6,4.7,252.6,5z M249.4,71.9c3.1,0,5.6-0.2,7.3-0.7c1.7-0.5,2.7-1,3-1.4l-0.1-36c0-0.5-0.3-1.1-0.8-1.9
		c-0.5-0.8-1.3-1.5-2.3-2.2c-1-0.7-2.2-1.3-3.5-1.9c-1.3-0.5-2.8-0.8-4.5-0.8h-0.1c-2,0-3.7,0.2-5,0.7c-1.3,0.5-2.4,1.1-3.2,1.8
		c-0.8,0.7-1.4,1.5-1.7,2.2c-0.3,0.8-0.5,1.4-0.5,2L237.9,70c0,0.1,0.2,0.3,0.5,0.5c0.4,0.2,1,0.4,1.8,0.6c0.9,0.2,2,0.4,3.5,0.5
		c1.5,0.2,3.3,0.2,5.5,0.2H249.4z"/>
	<path id="XMLID_1_" class="st0" d="M299.6,58.4c-0.3-1.5-0.8-2.5-1.4-3c-0.4-0.4-1-0.7-1.6-0.9c-0.7-0.2-1.4-0.4-2.3-0.5
		c-0.8-0.1-1.7-0.2-2.6-0.2c-0.9,0-1.8-0.1-2.6-0.1l-5.5-0.1c-2.2,0.2-5,0.9-6.4,1.8c0,0,2.6-3.1,6-3.4c0.2,0,0.3,0,0.4,0l0-2.6
		c0-4.5,0.1-8.4,0.1-11.7c0-3.3,0-6,0-8.4c0-2.3,0-4.2,0-5.6c0-1.4,0-2.6,0-3.5c0-0.9-0.3-1.6-1-2.3c-0.6-0.7-1.5-1.3-2.5-1.8
		c-1.1-0.5-2.3-0.9-3.7-1.2c-1.4-0.3-2.9-0.4-4.5-0.4c-3.4,0-5.8,0.5-7.3,1.6c-0.5,0.3-0.9,0.8-1.3,1.3c-0.4,0.6-0.6,1.5-0.6,2.8
		c0,2.1,0,4.6,0,7.3c0,2.8-0.1,6.2-0.1,10.3c0,2.3,0,4.5,0,6.8c0,2.2,0,4.3,0,6.1c0,1.9,0,3.5,0,4.8s0,2.3,0,2.9c0,0.3,0,0.6,0,0.8
		c0,0.3,0,0.6-0.1,1c-0.1,1.1-0.1,2.2-0.1,3.3c0,1,0.2,2,0.5,2.9c0.3,0.9,0.7,1.7,1.4,2.4c0.6,0.7,1.5,1.3,2.7,1.7
		c0.7,0.2,2.2,0.3,4.6,0.4c2.4,0.1,5.8,0.2,10.3,0.2c1.4,0,2.9,0,4.2-0.1c1.4,0,2.6-0.1,3.7-0.1c0.7,0,1.3,0,1.9,0
		c0.6,0,1.2,0,1.9,0c0.5,0,1.2-0.1,2-0.4c0.8-0.3,1.5-0.7,2.2-1.2c1.3-1.1,2-3,2.1-5.6C300,61.6,299.9,59.8,299.6,58.4z"/>
</g>
</svg>
