<?xml version="1.0" encoding="utf-8"?>
<!-- Generator: Adobe Illustrator 24.0.1, SVG Export Plug-In . SVG Version: 6.00 Build 0)  -->
<svg version="1.1" id="Layer_1" xmlns="http://www.w3.org/2000/svg" xmlns:xlink="http://www.w3.org/1999/xlink" x="0px" y="0px"
     viewBox="0 0 156 66.6" style="enable-background:new 0 0 156 66.6;" xml:space="preserve">
<style type="text/css">
	.st0{fill:#0E2050;}
</style>
    <g>
	<path class="st0" d="M13,47.3c-7.5,0-13-4.8-13-12.5c0-7.5,5.7-12.3,13-12.3c7.6,0,13,4.8,13,12.5C25.9,42.6,20.2,47.3,13,47.3z
		 M7.8,66.4c-2.3,0-3.8-0.4-4.1-2.9c-0.2-1.2-0.2-2.4-0.4-3.5c-0.1-0.9-0.3-2.2-1.4-2.3l-0.5-0.1v-0.4c1.2,0,2.4,0,3.6-0.1
		c0.1,2.1,0.2,4.3,0.4,6.4c0.1,1.4,1.3,2,2.5,2c1.2,0,2.2-0.4,2.5-1.6c0.3-1.4,0.5-3.1,0.5-4.6c0-1.1-0.6-1.9-1.8-1.9v-0.3h4.6v0.3
		C9.3,57.5,13.7,66.4,7.8,66.4z M19.7,27.8c-1.6-2.5-3.9-4.1-6.9-4.1c-6.3,0-8.2,5.6-8.2,10.9c0,2.6,0.4,5.4,1.9,7.6
		c1.6,2.4,4,4.1,7,4.1c6.4,0,8.1-5.7,8.1-11C21.4,32.8,21,30,19.7,27.8z M24.6,58c-0.7,0.7-0.4,6.9-0.4,8h-0.4
		c-2-2.3-4.2-4.3-6.3-6.6l-0.1,0.1v0.3v1.4c0,0.8,0,1.5,0.1,2.3c0.1,1.9,0.5,2.1,2.3,2.3V66c-1.6,0-3.2,0-4.8,0v-0.3
		c0.5-0.1,1.1-0.2,1.4-0.6c0.5-0.7,0.4-4.6,0.4-5.7c0-0.3,0-0.5-0.1-0.8c-0.6-0.8-1-1-2-1.2v-0.3h2.9c0.9,1.5,4.5,4.8,5.9,6.4
		c0-0.7,0-1.4,0-2.1c0-0.6,0-1.2-0.1-1.8c-0.1-1.8-0.7-2-2.3-2.1v-0.3c1.5,0,3.1,0.1,4.7,0v0.3C25.3,57.6,24.8,57.7,24.6,58z
		 M73.7,28.3c-0.5-4-4.4-3.8-7.5-3.8H64v9.3h2.6c1.4,0,2.7,0,4.1-0.2V39h-0.5c-0.1-2.7-0.8-3.7-3.5-3.7c-0.9,0-1.8,0.1-2.6,0.1v5.9
		c0,4.1,0.5,4,4.4,4.7v0.6H45.6l-6.3-9.9c-1,1.3-4.4,5.8-4.4,7.3c0,1.2,1.6,1.7,2.6,2v0.6h-10v-0.8c4.2-0.3,5.4-1.9,7.6-5.2l3.5-5
		l-3.8-6.2c-1.6-2.7-3.8-5-7.1-5.2v-0.8h7.6l5.8,9.1c0.9-1.4,3.6-5.3,3.6-6.8c0-1.3-1.5-1.4-2.5-1.5v-0.8h9.6v0.8
		c-4,0.3-5.5,2-7.5,5.2c-0.9,1.3-1.8,2.7-2.6,4l4.9,7.7c1.5,2.4,3.4,4.7,6.4,4.7c3.5,0,7.3-0.2,7.3-4.7V28.4c0-3.4-0.8-4-4.1-4.4
		v-0.6H74l0.3,4.9L73.7,28.3z M27.5,66v-0.3c0.5-0.1,1.2-0.2,1.5-0.6c0.4-0.5,0.3-2.8,0.3-3.5c0-0.8,0.1-3.2-0.5-3.7
		c-0.3-0.2-1-0.4-1.4-0.4v-0.3c1.8,0,3.5,0,5.2,0v0.3c-2,0.3-1.9,1.2-1.9,3.1v1.8c0,0.4,0.1,0.8,0.1,1.3c0.1,1.5,0.2,1.9,1.9,2.1V66
		C30.9,66,29.2,66,27.5,66z M42.9,58.1c-0.8,0.7-3.5,7.3-4.1,8.5h-0.1L35.4,59c-0.4-1-0.7-1.3-1.8-1.5v-0.3c1.6,0,3.2,0,4.8,0v0.3
		c-0.5,0.1-1.4,0.2-1.4,0.8c0,0.8,1.9,4.8,2.4,5.7c0.4-1,2.2-4.9,2.2-5.7c0-0.6-1.1-0.8-1.5-0.9v-0.3c1.4,0,2.7,0,4.1,0v0.3
		C43.7,57.6,43.3,57.7,42.9,58.1z M52.6,66c-2.5,0-4.9,0-7.4,0v-0.3c0.4-0.1,1.2-0.2,1.5-0.5c0.4-0.5,0.3-3.1,0.3-3.8
		c0-0.7,0-1.3,0-1.9c-0.1-1.4-0.3-1.8-1.8-2v-0.3c2.5,0,5,0,7.5,0l-0.1,2.4h-0.3c-0.3-2.1-1.7-2-3.4-2h-0.4l-0.1,3.5
		c0.5-0.1,2.1,0,2.5-0.2c0.2-0.2,0.3-0.8,0.4-1h0.3c0,1.2-0.1,2.3-0.1,3.5h-0.3c-0.1-1.1-0.3-1.4-1.4-1.4h-1.4v1.6
		c0.1,1.4,0,2.1,1.6,2.1c1.7,0,2.5-1.3,3-2.7l0.3,0.1C53.1,64,53,65,52.6,66z M63.3,66c-1.9-0.4-3.1-3-4-4.5
		c1.1-0.3,1.8-0.7,1.8-1.9c0-1.5-1.4-1.9-2.6-2V62c0,0.5,0,1.1,0,1.6c0.1,1.6,0.3,2,2,2.1V66c-1.8,0-3.5,0-5.3,0v-0.3
		c1.4-0.2,1.8-0.5,1.8-2c0-0.6,0-1.2,0-1.8c0-0.9,0-1.7,0-2.5c-0.1-1.5-0.3-1.8-1.8-2v-0.3c1.3-0.1,2.5-0.1,3.7-0.1
		c1.5,0,4,0.3,4,2.3c0,1.2-0.9,1.8-1.9,2.1c0.8,1.5,2.5,3.9,4.3,4.2v0.3C64.7,66.1,64,66.1,63.3,66z M69.5,66.3
		c-0.8,0-1.9-0.4-2.6-0.7v-2.8h0.3c0.2,1.3,0.8,3.1,2.5,3.1c0.9,0,1.6-0.7,1.6-1.6c0-2.3-4.3-1.8-4.3-4.6c0-1.7,1.6-2.6,3.2-2.6
		c0.8,0,1.5,0.2,2.1,0.5l-0.1,2.4h-0.3c-0.3-1.1-0.7-2.4-2-2.4c-0.8,0-1.4,0.7-1.4,1.4c0,2.4,4.4,1.8,4.4,4.7
		C72.8,65.5,71.1,66.3,69.5,66.3z M74.7,66v-0.3c0.4-0.1,1.2-0.2,1.5-0.6c0.4-0.5,0.3-2.8,0.3-3.5c0-0.8,0.1-3.2-0.5-3.7
		c-0.3-0.2-1-0.4-1.3-0.4v-0.3c1.7,0,3.4,0,5.1,0v0.3c-2,0.3-1.9,1.2-1.9,3.1v1.8c0,0.4,0.1,0.8,0.1,1.3c0.1,1.5,0.2,1.9,1.9,2.1V66
		C78.2,66,76.5,66,74.7,66z M89.6,47.3c-7.4,0-13-4.8-13-12.4c0-7.6,5.7-12.3,13-12.3c7.6,0,13,4.8,13,12.5
		C102.6,42.6,96.8,47.3,89.6,47.3z M96.3,27.9c-1.6-2.5-3.9-4.2-6.9-4.2c-6.3,0-8.2,5.6-8.2,10.9c0,2.5,0.4,5.4,1.9,7.6
		c1.6,2.4,4,4,7,4c6.4,0,8.1-5.6,8.1-11C98.1,32.8,97.7,30,96.3,27.9z M89.8,60c-0.4-2.3-1-2.1-3.2-2.1c0,1.3-0.1,2.5-0.1,3.8
		c0,0.8-0.1,3.1,0.4,3.6c0.4,0.3,1.1,0.4,1.5,0.4V66c-1.8,0-3.6,0-5.4,0v-0.3c0.4-0.1,1.3-0.2,1.6-0.6c0.4-0.5,0.3-2.9,0.3-3.5
		c0-1.3,0-2.5,0-3.7c-2.3,0.1-2.9-0.2-3.2,2.2L81.5,60c0.1-0.9,0.2-1.9,0.2-2.8c0.9,0.1,1.9,0.1,2.9,0.1c0.8,0,1.7,0,2.5,0
		c0.9,0,1.9,0,2.9-0.1v0.4c0,0.8,0.1,1.6,0.2,2.4H89.8z M99.9,58c-0.5,0.3-0.8,0.9-1.1,1.3c-0.3,0.5-1.6,3-1.6,3.3
		c0,2-0.3,2.9,1.9,3.2V66c-1.8,0-3.6,0-5.4,0v-0.3c2.2-0.3,1.9-1.1,1.9-3.1c-0.5-0.9-2.4-4.3-3.3-4.8c-0.3-0.2-0.8-0.3-1.1-0.3v-0.3
		c1.5,0,3,0,4.5,0v0.3c-0.4,0.1-1,0.2-1,0.7c0,0.6,1.7,2.8,2.1,3.5c0.4-0.7,1.5-2.7,1.5-3.5c0-0.4-0.4-0.6-0.9-0.7v-0.3
		c1.2,0,2.4,0,3.6,0v0.3C100.6,57.6,100.2,57.7,99.9,58z M143.1,46.5l-12.6,0.1h-0.2h-1c-3-0.1-4.1-0.2-6.7-1.8
		c-4.3-2.6-6.3-5.7-9.3-9.7c2.5,0,6-2.7,6-5.3c0-3.7-3.7-5.3-6.9-5.3l-0.4,0.1c0,5.7-0.1,11.5-0.1,17.3c0,3.6,1.1,3.6,4.5,4.1v0.8
		h-8.4c0.1-6,0.2-11.9,0.2-17.9c0-1.5,0.2-4.2-1.9-4.3c-0.4-0.1-0.8-0.1-1.2-0.1l0.1-0.7c2.9-0.1,5.8-0.2,8.6-0.2
		c3.6,0,9.5,0.7,9.5,5.4c0,3.4-2.9,5.4-5.8,6.2c2.2,2.5,8.9,10.7,12.6,10.7c3.4,0,4.5-1.5,4.5-4.8V29.2c0-3.6-0.6-4.5-4.2-5v-0.7
		c3.2,0,6.3-0.1,9.5-0.1c7.9,0,16,2.1,16,11.5C156,41.6,149.4,46.5,143.1,46.5z M112.4,62.5v-0.3c1.4-0.2,2.1-0.5,2.1-2.1
		c0-1.8-1.7-2.4-3.2-2.4v4.2c0,0.6,0,1.2,0,1.8c0.1,1.7,0.3,2,2,2.1V66c-1.8,0-3.6,0-5.3,0v-0.3c0.4-0.1,1.2-0.2,1.5-0.5
		c0.4-0.5,0.3-2.8,0.3-3.5c0-0.8,0.2-3.2-0.5-3.7c-0.3-0.2-0.9-0.3-1.3-0.4v-0.3c1.2,0,2.5-0.1,3.7-0.1c1.5,0,4.5,0.4,4.5,2.5
		C116.2,61.9,114.2,62.4,112.4,62.5z M126,66c-1.9-0.4-3.1-3-4-4.5c1.1-0.3,1.9-0.7,1.9-1.9c0-1.5-1.4-1.9-2.7-2V62
		c0,0.5,0.1,1.1,0.1,1.6c0,1.6,0.3,2,2,2.1V66c-1.8,0-3.5,0-5.2,0v-0.3c1.4-0.2,1.7-0.5,1.7-2c0.1-0.6,0.1-1.2,0.1-1.8
		c0-0.8-0.1-1.7-0.1-2.5c0-1.5-0.3-1.8-1.8-2v-0.3c1.2-0.1,2.5-0.1,3.7-0.1c1.5,0,4,0.3,4,2.3c0,1.2-0.9,1.8-1.8,2.1
		c0.8,1.5,2.5,3.9,4.3,4.2v0.3C127.4,66.1,126.7,66.1,126,66z M136.5,66c-2.5,0-4.9,0-7.4,0v-0.3c0.4-0.1,1.2-0.2,1.5-0.5
		c0.4-0.5,0.3-3.1,0.3-3.8c0-0.7,0-1.3,0-1.9c-0.1-1.4-0.3-1.8-1.8-2v-0.3c2.5,0,5,0,7.5,0l-0.1,2.4h-0.3c-0.3-2.1-1.7-2-3.4-2h-0.4
		l-0.1,3.5c0.5-0.1,2.1,0,2.5-0.2c0.2-0.2,0.3-0.8,0.4-1h0.3c0,1.2-0.1,2.3-0.1,3.5h-0.3c-0.1-1.1-0.3-1.4-1.4-1.4h-1.4v1.6
		c0.1,1.4,0,2.1,1.6,2.1c1.7,0,2.5-1.3,3-2.7l0.3,0.1C137,64,136.9,65,136.5,66z M139.9,24.5c-0.5,0-1.2,0.1-1.6,0.2v17.1
		c0,3,1.1,3.6,4,3.6c6,0,9.2-4.5,9.2-10.1C151.5,28.4,146.6,24.5,139.9,24.5z M142.1,66.3c-0.8,0-1.9-0.4-2.6-0.7v-2.8h0.3
		c0.2,1.3,0.8,3.1,2.5,3.1c0.9,0,1.6-0.7,1.6-1.6c0-2.3-4.3-1.8-4.3-4.6c0-1.7,1.6-2.6,3.2-2.6c0.8,0,1.5,0.2,2.1,0.5l-0.1,2.4h-0.3
		c-0.3-1.1-0.7-2.4-2-2.4c-0.8,0-1.4,0.7-1.4,1.4c0,2.4,4.4,1.8,4.4,4.7C145.4,65.5,143.8,66.3,142.1,66.3z M150.4,66.3
		c-0.7,0-1.9-0.4-2.6-0.7v-2.8h0.3c0.3,1.3,0.8,3.1,2.5,3.1c0.9,0,1.6-0.7,1.6-1.6c0-2.3-4.3-1.8-4.3-4.6c0-1.7,1.6-2.6,3.1-2.6
		c0.8,0,1.5,0.2,2.2,0.5l-0.1,2.4h-0.3c-0.3-1.1-0.7-2.4-2-2.4c-0.8,0-1.5,0.7-1.5,1.4c0,2.4,4.5,1.8,4.5,4.7
		C153.7,65.5,152,66.3,150.4,66.3z"/>
</g>
    <g>
	<path class="st0" d="M4.7,10.1c0.1,2,0.1,2.6,2.4,2.9v0.3H0.5V13c2.3-0.3,2.4-0.9,2.4-2.9V3.2c-0.1-2-0.1-2.6-2.4-2.9V0h6.6v0.3
		C4.7,0.6,4.7,1.2,4.7,3.2V10.1z"/>
        <path class="st0" d="M9.5,7.3c0-0.8,0-1.1-1-1.8V5.3l2.3-0.9l0.2,0.1L10.9,6c1.1-0.8,2.2-1.5,3.4-1.5c2.3,0,2.5,1.9,2.5,3.1V11
		c0,1.6,0.1,1.8,1.5,2v0.3h-4.6V13c1.4-0.2,1.5-0.4,1.5-2V8.8c0-1.4,0.1-3.3-2.3-3.3c-0.8,0-1.3,0.3-2,0.8V11c0,1.6,0.1,1.8,1.5,2
		v0.3H8V13c1.4-0.2,1.5-0.4,1.5-2V7.3z"/>
        <path class="st0" d="M29.4,8.4c0.2-2.1-0.4-3-1.9-3c-1.3,0-1.2,0.6-1.2,1.7l-1,0.1c-0.2,0-0.4,0-0.4-0.2c0-0.5,2.1-2.6,3.7-2.6
		c1.8,0,2.3,1.4,2.3,2.9v2.8c0,1.7-0.1,2.1,1.7,2.5V13c-0.7,0.2-1.4,0.4-2,0.4c-0.8,0-1.1-0.5-1.2-1.2c-0.6,0.7-1.5,1.3-2.5,1.3
		c-1.3,0-2-1.1-2-2.2c0-0.3,0-0.6,0.1-0.9L29.4,8.4z M26.7,10.2c-0.1,0.3-0.1,0.5-0.1,0.8c0,0.8,0.5,1.5,1.4,1.5
		c0.5,0,1.1-0.4,1.4-0.7v-3L26.7,10.2z"/>
        <path class="st0" d="M38.6,6.8l-0.4,0.1c-0.3-0.9-0.7-2-1.8-2c-0.8,0-1.3,0.6-1.3,1.4c0,2,4,2,4,4.5c0,1.7-1.7,2.7-3.2,2.7
		c-0.9,0-1.7-0.2-2.4-0.7l-0.2-2.2l0.5-0.1c0.3,1.2,0.9,2.5,2.3,2.5c0.9,0,1.5-0.7,1.5-1.5c0-2.2-4-1.8-4-4.6c0-1.5,1.4-2.4,2.8-2.4
		c0.8,0,1.5,0.2,2.2,0.6L38.6,6.8z"/>
        <path class="st0" d="M45.7,6.8l-0.4,0.1c-0.3-0.9-0.7-2-1.8-2c-0.8,0-1.3,0.6-1.3,1.4c0,2,4,2,4,4.5c0,1.7-1.7,2.7-3.2,2.7
		c-0.9,0-1.7-0.2-2.4-0.7l-0.2-2.2l0.5-0.1c0.3,1.2,0.9,2.5,2.3,2.5c0.9,0,1.5-0.7,1.5-1.5c0-2.2-4-1.8-4-4.6c0-1.5,1.4-2.4,2.8-2.4
		c0.8,0,1.5,0.2,2.2,0.6L45.7,6.8z"/>
        <path class="st0" d="M52.3,13.5c-2.7,0-4.8-1.7-4.8-4.5c0-2.7,2.2-4.6,4.8-4.6c2.7,0,4.8,1.7,4.8,4.5
		C57.1,11.6,54.9,13.5,52.3,13.5z M52.3,4.9c-2.1,0-3,2.2-3,4c0,1.8,1,4.2,3.1,4.2c2,0,2.9-2.2,2.9-3.9C55.3,7.3,54.4,4.9,52.3,4.9z
		"/>
        <path class="st0" d="M65.9,11.9c-0.9,1-2.1,1.6-3.4,1.6c-2.4,0-4-2-4-4.3c0-2.7,2.4-4.7,5-4.7c0.6,0,2.1,0.1,2.1,1
		c0,0.4-0.5,0.9-0.9,0.9c-0.7,0-1.4-1.3-2.4-1.3c-1.6,0-2.3,1.8-2.3,3.1c0,2.5,1.7,4.1,3.7,4.1c0.8,0,1.4-0.3,2-0.8L65.9,11.9z"/>
        <path class="st0" d="M66.5,13.3V13c1.4-0.2,1.5-0.4,1.5-2V7.3c0-0.8,0-1.1-1.2-1.8V5.3l2.5-0.9l0.2,0.1V11c0,1.6,0.1,1.8,1.5,2v0.3
		H66.5z M69.7,0.8c0,0.5-0.5,1-1,1c-0.5,0-1-0.4-1-1c0-0.5,0.4-1,1-1C69.3-0.2,69.7,0.2,69.7,0.8z"/>
        <path class="st0" d="M76.7,8.4c0.2-2.1-0.4-3-1.9-3c-1.3,0-1.2,0.6-1.2,1.7l-1,0.1c-0.2,0-0.4,0-0.4-0.2c0-0.5,2.1-2.6,3.7-2.6
		c1.8,0,2.3,1.4,2.3,2.9v2.8c0,1.7-0.1,2.1,1.7,2.5V13c-0.7,0.2-1.4,0.4-2,0.4c-0.8,0-1.1-0.5-1.2-1.2c-0.6,0.7-1.5,1.3-2.5,1.3
		c-1.3,0-2-1.1-2-2.2c0-0.3,0-0.6,0.1-0.9L76.7,8.4z M74,10.2c-0.1,0.3-0.1,0.5-0.1,0.8c0,0.8,0.5,1.5,1.4,1.5
		c0.5,0,1.1-0.4,1.4-0.7v-3L74,10.2z"/>
        <path class="st0" d="M83.3,9.9c0,1.7,0,2.8,2.1,2.8c0.4,0,0.8,0,1.2-0.1l0.1,0.3c-1,0.4-2,0.6-3.1,0.6c-1.9,0-1.8-1-1.8-2.5V5.7
		h-1.3l-0.1-0.1l2.7-2.7h0.2v2h3.1v0.8h-3.1V9.9z"/>
        <path class="st0" d="M86.9,13.3V13c1.4-0.2,1.5-0.4,1.5-2V7.3c0-0.8,0-1.1-1.2-1.8V5.3l2.5-0.9l0.2,0.1V11c0,1.6,0.1,1.8,1.5,2v0.3
		H86.9z M90,0.8c0,0.5-0.5,1-1,1c-0.5,0-1-0.4-1-1c0-0.5,0.4-1,1-1C89.6-0.2,90,0.2,90,0.8z"/>
        <path class="st0" d="M97.2,13.5c-2.7,0-4.8-1.7-4.8-4.5c0-2.7,2.2-4.6,4.8-4.6c2.7,0,4.8,1.7,4.8,4.5C102,11.6,99.8,13.5,97.2,13.5
		z M97.2,4.9c-2.1,0-3,2.2-3,4c0,1.8,1,4.2,3.1,4.2c2,0,2.9-2.2,2.9-3.9C100.2,7.3,99.4,4.9,97.2,4.9z"/>
        <path class="st0" d="M104.5,7.3c0-0.8,0-1.1-1-1.8V5.3l2.3-0.9l0.2,0.1L105.9,6c1.1-0.8,2.2-1.5,3.4-1.5c2.3,0,2.5,1.9,2.5,3.1V11
		c0,1.6,0.1,1.8,1.5,2v0.3h-4.6V13c1.4-0.2,1.5-0.4,1.5-2V8.8c0-1.4,0.1-3.3-2.3-3.3c-0.8,0-1.3,0.3-2,0.8V11c0,1.6,0.1,1.8,1.5,2
		v0.3H103V13c1.4-0.2,1.5-0.4,1.5-2V7.3z"/>
        <path class="st0" d="M123.6,13.5h-0.3l-2.8-7c-0.4-0.8-0.6-1.5-1.6-1.6V4.7h4.1v0.3c-1.4,0-1.2,0.7-0.8,1.6l1.9,4.8l1.8-4.3
		c-0.6-1.6-0.6-1.9-1.8-2V4.7h4.2v0.3c-1.5,0.1-1.3,0.6-1,1.3l1.9,5.1c0.8-1.7,2.2-4.8,2.2-5.7c0-0.6-0.6-0.6-1.1-0.7V4.7h3.3v0.3
		c-1.1,0.1-1.4,0.9-1.8,1.7l-3,6.8h-0.3L126,7.5L123.6,13.5z"/>
        <path class="st0" d="M133.4,13.3V13c1.4-0.2,1.5-0.4,1.5-2V7.3c0-0.8,0-1.1-1.2-1.8V5.3l2.5-0.9l0.2,0.1V11c0,1.6,0.1,1.8,1.5,2
		v0.3H133.4z M136.6,0.8c0,0.5-0.5,1-1,1c-0.5,0-1-0.4-1-1c0-0.5,0.4-1,1-1C136.1-0.2,136.6,0.2,136.6,0.8z"/>
        <path class="st0" d="M141.6,9.9c0,1.7,0,2.8,2.1,2.8c0.4,0,0.8,0,1.2-0.1l0.1,0.3c-1,0.4-2,0.6-3.1,0.6c-1.9,0-1.8-1-1.8-2.5V5.7
		h-1.3l-0.1-0.1l2.7-2.7h0.2v2h3.1v0.8h-3.1V9.9z"/>
        <path class="st0" d="M148.2,11c0,1.6,0.1,1.8,1.5,2v0.3h-4.6V13c1.4-0.2,1.5-0.4,1.5-2V2.1c0-0.8,0-1.1-1-1.8V0.1l2.2-0.9l0.2,0.1
		v6.4c1-0.6,2.1-1.3,3.4-1.3c2.3,0,2.5,1.9,2.5,3.1V11c0,1.6,0.1,1.8,1.5,2v0.3H151V13c1.4-0.2,1.5-0.4,1.5-2V8.8
		c0-1.4,0.1-3.3-2.3-3.3c-0.8,0-1.3,0.3-2,0.7V11z"/>
</g>
</svg>
