<?xml version="1.0" encoding="utf-8"?>
<!-- Generator: Adobe Illustrator 21.1.0, SVG Export Plug-In . SVG Version: 6.00 Build 0)  -->
<svg version="1.1" id="Layer_1" xmlns="http://www.w3.org/2000/svg" xmlns:xlink="http://www.w3.org/1999/xlink" x="0px" y="0px"
	 viewBox="0 0 23.9 17.6" style="enable-background:new 0 0 23.9 17.6;" xml:space="preserve">
<style type="text/css">
	.st0{fill:#8BA2B6;}
</style>
<g>
	<path class="st0" d="M2.7,2.8C3.1,0.9,4.2,0,6.1,0h2.2c2.4,0,3.3,1.4,2.6,3.6L7.1,15.1c-0.6,1.7-1.7,2.5-3.6,2.5H2.7
		c-2.3,0-3-1.3-2.6-3.4L2.7,2.8z M15.4,2.8C15.8,0.9,16.9,0,18.8,0H21c2.4,0,3.3,1.4,2.6,3.6l-3.8,11.5c-0.6,1.7-1.7,2.5-3.6,2.5
		h-0.8c-2.3,0-3-1.3-2.6-3.4L15.4,2.8z"/>
</g>
</svg>
