<?xml version="1.0" encoding="UTF-8"?>
<!DOCTYPE svg PUBLIC "-//W3C//DTD SVG 1.1//EN" "http://www.w3.org/Graphics/SVG/1.1/DTD/svg11.dtd">
<!-- Creator: CorelDRAW X8 -->
<svg xmlns="http://www.w3.org/2000/svg" xml:space="preserve" width="4724px" height="4724px" version="1.1" style="shape-rendering:geometricPrecision; text-rendering:geometricPrecision; image-rendering:optimizeQuality; fill-rule:evenodd; clip-rule:evenodd"
viewBox="0 0 4724 4724"
 xmlns:xlink="http://www.w3.org/1999/xlink">
 <defs>
  <style type="text/css">
   <![CDATA[
    .fil3 {fill:#FEFEFE}
    .fil2 {fill:#F08519}
    .fil0 {fill:#15B3B6}
    .fil1 {fill:#E36013}
    .fil4 {fill:#17B3B6;fill-rule:nonzero}
    .fil6 {fill:#E36013;fill-rule:nonzero}
    .fil5 {fill:#E36013;fill-rule:nonzero}
   ]]>
  </style>
 </defs>
 <g id="Layer_x0020_1">
  <metadata id="CorelCorpID_0Corel-Layer"/>
  <g id="_1853007316480">
   <path class="fil0" d="M2822 2841c-415,172 -874,86 -1197,-184 104,-137 147,-329 475,-247 421,103 835,-27 1089,-385 132,-196 188,-365 197,-583 1,-34 1,-71 1,-108 0,-45 51,-58 67,-20 2,7 5,13 8,20 16,43 30,86 35,104 49,174 56,357 26,534 -71,392 -335,713 -701,869z"/>
   <path class="fil1" d="M3070 1097c84,175 99,347 61,504 -41,172 -146,326 -293,446 -279,227 -504,139 -638,242 -257,196 -112,611 158,641 -295,-5 -580,-122 -792,-326 -113,-108 -205,-241 -269,-394 -530,-1277 1252,-2208 1773,-1113z"/>
   <path class="fil2" d="M3070 1097c1,2 3,5 4,8l0 0c1,3 2,5 4,8l0 1c1,2 2,5 3,7l0 1c2,2 3,5 4,7l0 1c1,3 2,5 3,8l0 0c1,2 3,5 4,8l0 1c1,2 2,4 3,7l0 1c1,2 2,5 3,7l0 1c1,2 2,5 3,7l0 1c1,2 2,5 3,7l0 1c1,3 2,5 3,8l0 1c1,2 2,4 3,7l0 1c1,2 2,4 2,7l1 1c1,2 1,4 2,7l0 1c1,2 2,5 3,7l0 1c1,2 1,5 2,7l0 1c1,3 2,5 2,7l1 1c0,3 1,5 1,7l1 1c0,3 1,5 2,7l0 1c0,3 1,5 2,7l0 2c1,2 1,4 2,6l0 2c0,2 1,4 1,6l1 2c0,2 1,4 1,6l0 2c1,2 1,4 2,6l0 2c0,2 1,4 1,6l1 2c0,2 1,4 1,6l0 2c1,2 1,4 1,6l1 2c0,2 0,4 1,6l0 2c0,2 0,4 1,6 13,94 9,184 -12,270 -41,172 -146,326 -293,446 -176,143 -331,161 -455,180l0 0 0 0c-72,12 -134,24 -183,62 -48,36 -78,77 -98,117 -47,92 -7,306 -7,306 -113,-180 -165,-520 -63,-721 8,-16 21,-30 29,-47 40,-83 103,-139 163,-176 -92,17 -267,49 -267,49l-57 -24 -75 54c0,0 -109,4 -131,-9 -21,-12 -53,-134 -60,-153 -7,-19 30,-177 30,-177l37 -123c151,-178 100,-142 -25,-12 -7,8 -14,15 -21,23 -306,338 -350,830 -113,1184 -102,-104 -186,-228 -245,-370 -94,-227 -115,-443 -83,-638l0 0c3,-17 6,-33 9,-49l0 -1c1,-5 2,-10 4,-16l0 0c185,-813 1290,-1238 1765,-545l0 0c3,5 6,9 10,14 2,4 5,9 8,13 5,9 11,17 16,26 2,3 3,5 4,8 7,11 13,22 19,33l1 3c7,12 14,25 20,39z"/>
   <path class="fil3" d="M2573 1270c-5,-5 -5,-13 0,-18 6,-5 14,-4 18,1 23,24 58,93 81,163 18,53 28,108 20,143 -1,7 -8,11 -15,9 -7,-1 -11,-8 -10,-15 7,-30 -3,-79 -19,-129 -22,-66 -55,-132 -75,-154zm-728 726c20,22 44,-3 100,-62 56,-60 150,-140 287,-152 4,0 8,0 12,-1 -170,-35 -190,-105 -190,-105 -2,-7 1,-14 8,-16 7,-2 14,2 16,8 0,1 21,72 236,99 79,10 173,6 260,-3 51,-14 97,-40 133,-88 -17,12 -36,20 -54,24 -19,4 -38,3 -55,-4 -31,-11 -55,-40 -61,-89 -8,-64 -28,-164 -28,-164 -1,-7 3,-14 10,-15 7,-1 14,3 15,10 0,0 21,100 28,166 5,38 22,60 45,69 12,4 26,5 41,2 15,-3 31,-10 46,-21 36,-26 68,-73 77,-139l0 -3 0 0 0 -1 1 -3 0 -2 0 -3 0 -2 0 -4 0 -1 1 -4 0 -1 0 -4 0 0 0 -1 0 0 0 -4 0 -1c0,-1 0,-3 0,-4l0 -1 0 0c0,-2 0,-3 0,-5l0 0 0 0c0,-2 0,-3 -1,-5l0 0 0 0c0,-2 0,-3 0,-5l0 0c0,-2 0,-4 0,-5l0 0 0 -1c0,-1 0,-3 -1,-4 -10,-113 -72,-210 -161,-260 -9,0 -17,-1 -27,-1 -35,-1 -66,4 -93,12 -28,8 -52,20 -72,33 16,13 31,27 45,42 18,20 33,42 44,66 3,6 0,14 -6,17 -6,3 -14,1 -17,-6 -10,-22 -24,-42 -40,-60 -14,-16 -30,-30 -48,-43 -99,80 -119,191 -119,191 -1,7 -8,12 -15,11 -7,-2 -11,-8 -10,-15 0,-1 22,-126 135,-212 0,0 1,-1 2,-1 2,-2 4,-4 6,-5 24,-18 53,-33 87,-43 26,-7 55,-12 87,-13 -37,-30 -78,-52 -122,-68 -38,-1 -75,3 -109,13 -74,21 -135,73 -177,180 -2,7 -10,10 -16,8 -7,-3 -10,-10 -7,-17 44,-116 112,-173 193,-196 13,-4 26,-6 39,-8 -66,-12 -135,-11 -205,1l-7 5c-61,42 -132,125 -163,228 -22,75 -23,161 19,250 3,6 0,14 -7,17 -6,3 -14,0 -17,-6 -44,-95 -43,-188 -19,-269 27,-89 83,-165 138,-214 -56,14 -111,34 -163,59 -32,50 -53,98 -67,144 -20,64 -25,122 -27,170 -4,56 -17,90 -43,113 -26,23 -64,34 -118,45 -1,0 -1,0 -2,0 2,26 7,51 17,72 14,29 37,52 71,67 20,8 44,14 71,16 8,-22 17,-45 28,-70 2,-7 10,-10 17,-7 6,3 9,10 6,17 -21,51 -37,94 -48,138 -9,31 -29,120 -6,144zm57 -826c-225,126 -383,353 -287,585 45,108 127,130 210,94l1 -4c4,-15 9,-31 14,-46 -28,-3 -52,-9 -73,-18 -40,-17 -67,-45 -84,-79 -16,-34 -22,-74 -20,-117 3,-55 20,-116 45,-173 2,-7 10,-10 16,-7 7,3 10,10 7,17 -24,55 -39,112 -42,165 0,2 0,4 0,6 48,-10 81,-19 103,-38 21,-18 31,-47 34,-96 3,-49 8,-109 28,-176 11,-36 27,-74 48,-113zm201 213c1,-7 8,-12 15,-11 7,1 11,8 10,15 -2,13 -3,26 -2,38 2,51 26,96 62,130 37,35 85,59 135,67 17,3 33,4 49,3 7,0 13,5 13,12 1,7 -5,13 -12,14 -18,0 -36,-1 -54,-4 -55,-9 -108,-35 -148,-74 -41,-38 -68,-89 -71,-147 0,-14 1,-28 3,-43z"/>
   <path class="fil1" d="M3408 1119c7,19 21,37 34,52 14,14 26,25 28,30 5,13 -47,-8 -54,-10 -24,-8 -44,-9 -60,3 -4,4 -6,8 -9,12 -4,7 -18,40 -28,36 -8,-4 -16,-40 -19,-49 -10,-30 -24,-49 -55,-66 -10,-6 -21,-11 -31,-15 -7,-3 -37,-15 -28,-22 7,-6 32,-11 43,-17 15,-8 25,-18 25,-38 0,-15 -10,-52 -7,-60 4,-10 27,16 33,22 21,20 37,33 53,39 17,6 33,7 56,3 6,-1 34,-7 33,8 0,8 -11,27 -13,37 -3,11 -4,22 -1,35z"/>
  </g>
  <g id="_1853007311776">
   <path class="fil4" d="M507 3245c-152,0 -274,123 -274,276 0,150 122,274 274,274 41,0 96,1 169,-47 25,-16 39,-45 26,-72 -13,-26 -47,-42 -72,-25 -53,34 -98,36 -123,36 -73,0 -134,-47 -157,-113l377 0c30,0 55,-24 55,-53 0,-180 -143,-276 -275,-276zm0 108c66,0 136,36 159,113l-316 0c23,-65 84,-113 157,-113z"/>
   <path class="fil4" d="M1094 3247c-152,0 -275,122 -275,274 0,150 123,274 275,274 150,0 274,-124 274,-274 0,0 0,-1 0,-1l0 -490c0,-30 -24,-54 -55,-54 -29,0 -53,24 -53,54l0 273c-46,-35 -104,-56 -166,-56zm0 439c-92,0 -167,-75 -167,-165 0,-92 75,-166 167,-166 91,0 166,74 166,165l0 1c0,0 0,0 0,0 0,91 -75,165 -166,165z"/>
   <path class="fil4" d="M1795 3258c-30,0 -54,24 -54,53l0 273c0,62 -51,113 -114,113 -62,0 -113,-51 -113,-113l0 -273c0,-29 -24,-53 -54,-53 -30,0 -54,24 -54,53l0 274c0,0 0,1 0,1 1,121 100,219 221,219 122,0 221,-98 222,-219 0,0 0,-1 0,-1l0 -274c0,-29 -24,-53 -54,-53z"/>
   <path class="fil5" d="M2161 3249c152,0 274,123 274,274 0,151 -122,274 -274,274 -151,0 -274,-123 -274,-274 0,0 0,-1 0,-1l0 -490c0,-29 24,-54 54,-54 30,0 54,25 54,54l0 273c46,-35 104,-56 166,-56zm0 440c92,0 166,-75 166,-166 0,-92 -74,-165 -166,-165 -92,0 -166,73 -166,164l0 1c0,0 0,0 0,0 0,92 74,166 166,166z"/>
   <path class="fil6" d="M2748 3248c-151,0 -275,122 -275,274l0 219c0,29 24,54 55,54 29,0 54,-25 54,-54l0 -219c0,-92 74,-166 166,-166 30,0 54,-25 54,-54 0,-30 -24,-54 -54,-54z"/>
   <path class="fil6" d="M3046 3248c-154,0 -277,122 -277,277 0,155 123,269 277,269 62,0 114,-15 161,-54l0 0c0,31 31,54 53,54 31,0 54,-23 54,-54l0 -215c0,-155 -114,-277 -268,-277zm0 439c-92,0 -170,-70 -170,-162 0,-92 78,-170 170,-170 91,0 161,78 161,170 0,92 -70,162 -161,162z"/>
   <path class="fil6" d="M3627 3245c-151,0 -274,123 -274,275l0 220c0,31 24,55 53,55 31,0 55,-24 55,-55l0 -220c0,-92 74,-167 166,-167 92,0 166,75 166,167l0 220c0,31 24,55 53,55 31,0 55,-24 55,-55l0 -220c0,-152 -123,-275 -274,-275z"/>
   <path class="fil6" d="M4214 3247c-152,0 -275,123 -275,274 0,151 123,274 275,274 150,0 274,-123 274,-274 0,0 0,-1 0,-1l0 -490c0,-29 -24,-54 -55,-54 -29,0 -53,25 -53,54l0 273c-46,-35 -104,-56 -166,-56zm0 440c-92,0 -167,-75 -167,-166 0,-91 75,-165 167,-165 91,0 166,74 166,164l0 1c0,0 0,0 0,0 0,92 -75,166 -166,166z"/>
  </g>
 </g>
</svg>
