<?xml version="1.0" encoding="utf-8"?>
<!-- Generator: Adobe Illustrator 21.1.0, SVG Export Plug-In . SVG Version: 6.00 Build 0)  -->
<svg version="1.1" id="Layer_1" xmlns="http://www.w3.org/2000/svg" xmlns:xlink="http://www.w3.org/1999/xlink" x="0px" y="0px"
	 viewBox="0 0 81.7 39.8" style="enable-background:new 0 0 81.7 39.8;" xml:space="preserve">
<style type="text/css">
	.st0{clip-path:url(#SVGID_2_);}
	.st1{opacity:0.9148;clip-path:url(#SVGID_4_);}
	.st2{clip-path:url(#SVGID_6_);fill:#3CA3FC;}
</style>
<g>
	<defs>
		<rect id="SVGID_1_" width="81.7" height="39.8"/>
	</defs>
	<clipPath id="SVGID_2_">
		<use xlink:href="#SVGID_1_"  style="overflow:visible;"/>
	</clipPath>
	<g class="st0">
		<defs>
			<rect id="SVGID_3_" y="0" width="81.7" height="39.8"/>
		</defs>
		<clipPath id="SVGID_4_">
			<use xlink:href="#SVGID_3_"  style="overflow:visible;"/>
		</clipPath>
		<g class="st1">
			<g>
				<defs>
					<rect id="SVGID_5_" y="0" width="81.7" height="39.8"/>
				</defs>
				<clipPath id="SVGID_6_">
					<use xlink:href="#SVGID_5_"  style="overflow:visible;"/>
				</clipPath>
				<path class="st2" d="M4.1,39.8c-1.1,0-2.1-0.4-2.9-1.1C0.5,37.9,0.1,37,0,35.8V24.2c0-2,0.5-3.9,1.3-5.7
					c0.8-1.8,1.9-3.3,3.3-4.6c1.4-1.3,3-2.4,4.8-3.1c1.8-0.8,3.8-1.2,5.9-1.3c1.2,0,2.2,0.4,2.9,1.2c0.8,0.8,1.2,1.8,1.3,2.9
					c0,1.1-0.4,2.1-1.2,2.8c-0.8,0.8-1.8,1.2-3,1.2c-1,0-1.9,0.2-2.7,0.5c-0.8,0.4-1.6,0.8-2.2,1.5c-0.6,0.6-1.1,1.4-1.5,2.2
					c-0.4,0.9-0.6,1.8-0.6,2.8V36c-0.1,1.1-0.5,2-1.2,2.7C6.3,39.4,5.3,39.8,4.1,39.8 M26,0c1.1,0,2,0.4,2.8,1.1
					c0.8,0.8,1.2,1.7,1.3,2.9v7.2c1-0.6,2.1-1.1,3.4-1.3c1.3-0.2,2.6-0.4,3.7-0.4c2.1,0,4,0.4,5.9,1.1c1.9,0.8,3.5,1.8,4.9,3.1
					s2.5,2.9,3.3,4.7c0.8,1.8,1.2,3.7,1.2,5.8v11.4c0,1.1-0.4,2.1-1.2,2.9c-0.8,0.8-1.8,1.2-2.9,1.2c-1.1,0-2-0.4-2.8-1.1
					c-0.8-0.7-1.2-1.7-1.4-2.8V24.7c0-0.9-0.2-1.8-0.5-2.7c-0.4-0.9-0.9-1.6-1.5-2.3c-0.6-0.6-1.4-1.2-2.2-1.5
					c-0.8-0.4-1.8-0.6-2.8-0.6c-1.9,0-3.5,0.6-4.8,1.9c-1.3,1.3-2.1,2.9-2.3,4.8v11.3c0,1.1-0.4,2.1-1.2,2.9
					c-0.8,0.8-1.8,1.2-2.9,1.2c-1.1,0-2-0.4-2.7-1.1c-0.7-0.7-1.2-1.7-1.4-2.8V3.8c0.1-1,0.5-1.9,1.2-2.7C23.8,0.4,24.8,0,26,0
					 M77.4,22.8c1.2,0,2.3,0.4,3.1,1.2s1.3,1.8,1.3,3c0,1.2-0.4,2.2-1.3,3c-0.8,0.8-1.9,1.2-3.1,1.2h-3.7V35c0,1.2-0.4,2.2-1.3,3.1
					c-0.8,0.8-1.9,1.3-3,1.3c-1.2,0-2.2-0.4-3.1-1.3c-0.8-0.8-1.2-1.9-1.2-3.1v-3.6h-3.7c-1.2,0-2.2-0.4-3-1.2
					c-0.8-0.8-1.2-1.8-1.2-3c0-1.2,0.4-2.2,1.2-3s1.8-1.2,3-1.2h3.7v-3.7c0-1.2,0.4-2.2,1.2-3c0.8-0.8,1.8-1.2,3.1-1.2
					c1.2,0,2.2,0.4,3,1.2c0.8,0.8,1.3,1.8,1.3,3v3.7H77.4z"/>
			</g>
		</g>
	</g>
</g>
</svg>
