<?xml version="1.0" encoding="utf-8"?>
<!-- Generator: Adobe Illustrator 21.1.0, SVG Export Plug-In . SVG Version: 6.00 Build 0)  -->
<svg version="1.1" id="Layer_1" xmlns="http://www.w3.org/2000/svg" xmlns:xlink="http://www.w3.org/1999/xlink" x="0px" y="0px"
	 viewBox="0 0 2377.3 1527.2" style="enable-background:new 0 0 2377.3 1527.2;" xml:space="preserve">
<style type="text/css">
	.st0{fill:#FF3750;}
	.st1{fill:#FFCA2A;}
	.st2{fill:#FF4947;}
</style>
<g>
	<g>
		<path class="st0" d="M1954.5,651c1002-557,792.5,1140.4,123.8,559.7C935.1,217.7,719.7,1827.3,4.9,1272.3
			C-406.8,952.7-236.3,250.9-83,147.1C849.5-484.8,1048.2,1154.7,1954.5,651z"/>
	</g>
</g>
<path class="st1" d="M1974.3,715.4c-28.5,59.4-117.1,62-151.2,5.9c-34.5-56.7,3.8-119.1,64.7-124.7c54.2-5,110.5,52.6,90.1,110.4
	C1976.8,709.9,1975.6,712.7,1974.3,715.4z"/>
<path class="st2" d="M243,498c-99.9-29.8-228.9-21.5-321.3,46.5c-18.8,13.9-46.2,34.2-65.8,70.9c-27.2,51-20.8,162.5,20.7,264.9
	c18.5,45.7,42.6,98.1,96.7,144.4c88.4,75.6,220.2,99.4,335.4,60.3c12.2-4.1,192.8-68.8,220.4-224.9C559.1,691.2,388.1,541.4,243,498
	z"/>
</svg>
